<mxfile host="app.diagrams.net" agent="Mozilla/5.0 (Macintosh; Intel Mac OS X 10_15_7) AppleWebKit/537.36 (KHTML, like Gecko) Chrome/138.0.0.0 Safari/537.36" version="28.1.0" pages="2">
  <diagram name="第 1 页" id="76G4VJTwqiXe8mTsov4o">
    <mxGraphModel dx="1426" dy="681" grid="1" gridSize="10" guides="1" tooltips="1" connect="1" arrows="1" fold="1" page="1" pageScale="1" pageWidth="827" pageHeight="1169" math="1" shadow="0">
      <root>
        <mxCell id="0" />
        <mxCell id="1" parent="0" />
        <mxCell id="MAAAuruS-whw0iSs_L9g-61" value="" style="rounded=0;whiteSpace=wrap;html=1;fillColor=#f5f5f5;fontColor=#333333;strokeColor=#666666;sketch=1;curveFitting=1;jiggle=2;strokeWidth=0.5;" vertex="1" parent="1">
          <mxGeometry x="620" y="505.75" width="125" height="80" as="geometry" />
        </mxCell>
        <mxCell id="MAAAuruS-whw0iSs_L9g-59" value="" style="rounded=0;whiteSpace=wrap;html=1;fillColor=#f5f5f5;fontColor=#333333;strokeColor=#666666;sketch=1;curveFitting=1;jiggle=2;strokeWidth=0.5;" vertex="1" parent="1">
          <mxGeometry x="80" y="450" width="240" height="160" as="geometry" />
        </mxCell>
        <mxCell id="MfKM30S0lkw0a0lAKNxP-53" value="$$\boldsymbol{W}_Q$$" style="text;html=1;align=center;verticalAlign=middle;whiteSpace=wrap;rounded=0;fontSize=10;" vertex="1" parent="1">
          <mxGeometry x="50" y="115" width="30" height="15" as="geometry" />
        </mxCell>
        <mxCell id="MfKM30S0lkw0a0lAKNxP-54" value="" style="whiteSpace=wrap;html=1;strokeWidth=1;fillColor=#FFFFFF;strokeColor=#b85450;fontSize=8;fontFamily=Comic Sans MS;fontStyle=0" vertex="1" parent="1">
          <mxGeometry x="414" y="50" width="60" height="120" as="geometry" />
        </mxCell>
        <mxCell id="MfKM30S0lkw0a0lAKNxP-56" value="" style="group" vertex="1" connectable="0" parent="1">
          <mxGeometry x="50" y="130" width="60" height="120" as="geometry" />
        </mxCell>
        <mxCell id="MfKM30S0lkw0a0lAKNxP-29" value="1" style="whiteSpace=wrap;html=1;aspect=fixed;strokeWidth=0.5;fillColor=#f5f5f5;fontColor=#333333;strokeColor=#666666;fontSize=8;fontFamily=Comic Sans MS;fontStyle=0" vertex="1" parent="MfKM30S0lkw0a0lAKNxP-56">
          <mxGeometry width="20" height="20" as="geometry" />
        </mxCell>
        <mxCell id="MfKM30S0lkw0a0lAKNxP-30" value="0" style="whiteSpace=wrap;html=1;aspect=fixed;strokeWidth=0.5;fillColor=#f5f5f5;fontColor=#333333;strokeColor=#666666;fontSize=8;fontFamily=Comic Sans MS;fontStyle=0;align=center;" vertex="1" parent="MfKM30S0lkw0a0lAKNxP-56">
          <mxGeometry x="20" width="20" height="20" as="geometry" />
        </mxCell>
        <mxCell id="MfKM30S0lkw0a0lAKNxP-31" value="0" style="whiteSpace=wrap;html=1;aspect=fixed;strokeWidth=0.5;fillColor=#f5f5f5;fontColor=#333333;strokeColor=#666666;fontSize=8;fontFamily=Comic Sans MS;fontStyle=0" vertex="1" parent="MfKM30S0lkw0a0lAKNxP-56">
          <mxGeometry x="40" width="20" height="20" as="geometry" />
        </mxCell>
        <mxCell id="MfKM30S0lkw0a0lAKNxP-35" value="0" style="whiteSpace=wrap;html=1;aspect=fixed;strokeWidth=0.5;fillColor=#f5f5f5;fontColor=#333333;strokeColor=#666666;fontSize=8;fontFamily=Comic Sans MS;fontStyle=0" vertex="1" parent="MfKM30S0lkw0a0lAKNxP-56">
          <mxGeometry y="20" width="20" height="20" as="geometry" />
        </mxCell>
        <mxCell id="MfKM30S0lkw0a0lAKNxP-36" value="1" style="whiteSpace=wrap;html=1;aspect=fixed;strokeWidth=0.5;fillColor=#f5f5f5;fontColor=#333333;strokeColor=#666666;fontSize=8;fontFamily=Comic Sans MS;fontStyle=0;align=center;" vertex="1" parent="MfKM30S0lkw0a0lAKNxP-56">
          <mxGeometry x="20" y="20" width="20" height="20" as="geometry" />
        </mxCell>
        <mxCell id="MfKM30S0lkw0a0lAKNxP-37" value="1" style="whiteSpace=wrap;html=1;aspect=fixed;strokeWidth=0.5;fillColor=#f5f5f5;fontColor=#333333;strokeColor=#666666;fontSize=8;fontFamily=Comic Sans MS;fontStyle=0" vertex="1" parent="MfKM30S0lkw0a0lAKNxP-56">
          <mxGeometry x="40" y="20" width="20" height="20" as="geometry" />
        </mxCell>
        <mxCell id="MfKM30S0lkw0a0lAKNxP-41" value="1" style="whiteSpace=wrap;html=1;aspect=fixed;strokeWidth=0.5;fillColor=#f5f5f5;fontColor=#333333;strokeColor=#666666;fontSize=8;fontFamily=Comic Sans MS;fontStyle=0" vertex="1" parent="MfKM30S0lkw0a0lAKNxP-56">
          <mxGeometry y="40" width="20" height="20" as="geometry" />
        </mxCell>
        <mxCell id="MfKM30S0lkw0a0lAKNxP-42" value="0" style="whiteSpace=wrap;html=1;aspect=fixed;strokeWidth=0.5;fillColor=#f5f5f5;fontColor=#333333;strokeColor=#666666;fontSize=8;fontFamily=Comic Sans MS;fontStyle=0;align=center;" vertex="1" parent="MfKM30S0lkw0a0lAKNxP-56">
          <mxGeometry x="20" y="40" width="20" height="20" as="geometry" />
        </mxCell>
        <mxCell id="MfKM30S0lkw0a0lAKNxP-43" value="0" style="whiteSpace=wrap;html=1;aspect=fixed;strokeWidth=0.5;fillColor=#f5f5f5;fontColor=#333333;strokeColor=#666666;fontSize=8;fontFamily=Comic Sans MS;fontStyle=0" vertex="1" parent="MfKM30S0lkw0a0lAKNxP-56">
          <mxGeometry x="40" y="40" width="20" height="20" as="geometry" />
        </mxCell>
        <mxCell id="MfKM30S0lkw0a0lAKNxP-44" value="0" style="whiteSpace=wrap;html=1;aspect=fixed;strokeWidth=0.5;fillColor=#f5f5f5;fontColor=#333333;strokeColor=#666666;fontSize=8;fontFamily=Comic Sans MS;fontStyle=0" vertex="1" parent="MfKM30S0lkw0a0lAKNxP-56">
          <mxGeometry y="80" width="20" height="20" as="geometry" />
        </mxCell>
        <mxCell id="MfKM30S0lkw0a0lAKNxP-45" value="0" style="whiteSpace=wrap;html=1;aspect=fixed;strokeWidth=0.5;fillColor=#f5f5f5;fontColor=#333333;strokeColor=#666666;fontSize=8;fontFamily=Comic Sans MS;fontStyle=0" vertex="1" parent="MfKM30S0lkw0a0lAKNxP-56">
          <mxGeometry x="20" y="80" width="20" height="20" as="geometry" />
        </mxCell>
        <mxCell id="MfKM30S0lkw0a0lAKNxP-46" value="1" style="whiteSpace=wrap;html=1;aspect=fixed;strokeWidth=0.5;fillColor=#f5f5f5;fontColor=#333333;strokeColor=#666666;fontSize=8;fontFamily=Comic Sans MS;fontStyle=0" vertex="1" parent="MfKM30S0lkw0a0lAKNxP-56">
          <mxGeometry x="40" y="80" width="20" height="20" as="geometry" />
        </mxCell>
        <mxCell id="MfKM30S0lkw0a0lAKNxP-47" value="1" style="whiteSpace=wrap;html=1;aspect=fixed;strokeWidth=0.5;fillColor=#f5f5f5;fontColor=#333333;strokeColor=#666666;fontSize=8;fontFamily=Comic Sans MS;fontStyle=0" vertex="1" parent="MfKM30S0lkw0a0lAKNxP-56">
          <mxGeometry y="60" width="20" height="20" as="geometry" />
        </mxCell>
        <mxCell id="MfKM30S0lkw0a0lAKNxP-48" value="0" style="whiteSpace=wrap;html=1;aspect=fixed;strokeWidth=0.5;fillColor=#f5f5f5;fontColor=#333333;strokeColor=#666666;fontSize=8;fontFamily=Comic Sans MS;fontStyle=0;align=center;" vertex="1" parent="MfKM30S0lkw0a0lAKNxP-56">
          <mxGeometry x="20" y="60" width="20" height="20" as="geometry" />
        </mxCell>
        <mxCell id="MfKM30S0lkw0a0lAKNxP-49" value="1" style="whiteSpace=wrap;html=1;aspect=fixed;strokeWidth=0.5;fillColor=#f5f5f5;fontColor=#333333;strokeColor=#666666;fontSize=8;fontFamily=Comic Sans MS;fontStyle=0" vertex="1" parent="MfKM30S0lkw0a0lAKNxP-56">
          <mxGeometry x="40" y="60" width="20" height="20" as="geometry" />
        </mxCell>
        <mxCell id="MfKM30S0lkw0a0lAKNxP-50" value="0" style="whiteSpace=wrap;html=1;aspect=fixed;strokeWidth=0.5;fillColor=#f5f5f5;fontColor=#333333;strokeColor=#666666;fontSize=8;fontFamily=Comic Sans MS;fontStyle=0" vertex="1" parent="MfKM30S0lkw0a0lAKNxP-56">
          <mxGeometry y="100" width="20" height="20" as="geometry" />
        </mxCell>
        <mxCell id="MfKM30S0lkw0a0lAKNxP-51" value="1" style="whiteSpace=wrap;html=1;aspect=fixed;strokeWidth=0.5;fillColor=#f5f5f5;fontColor=#333333;strokeColor=#666666;fontSize=8;fontFamily=Comic Sans MS;fontStyle=0" vertex="1" parent="MfKM30S0lkw0a0lAKNxP-56">
          <mxGeometry x="20" y="100" width="20" height="20" as="geometry" />
        </mxCell>
        <mxCell id="MfKM30S0lkw0a0lAKNxP-52" value="0" style="whiteSpace=wrap;html=1;aspect=fixed;strokeWidth=0.5;fillColor=#f5f5f5;fontColor=#333333;strokeColor=#666666;fontSize=8;fontFamily=Comic Sans MS;fontStyle=0" vertex="1" parent="MfKM30S0lkw0a0lAKNxP-56">
          <mxGeometry x="40" y="100" width="20" height="20" as="geometry" />
        </mxCell>
        <mxCell id="MfKM30S0lkw0a0lAKNxP-58" value="0.8" style="whiteSpace=wrap;html=1;aspect=fixed;strokeWidth=0.5;fillColor=#f5f5f5;fontColor=#333333;strokeColor=#666666;fontSize=8;fontFamily=Comic Sans MS;fontStyle=0" vertex="1" parent="1">
          <mxGeometry x="150" y="140" width="20" height="20" as="geometry" />
        </mxCell>
        <mxCell id="MfKM30S0lkw0a0lAKNxP-59" value="0.1" style="whiteSpace=wrap;html=1;aspect=fixed;strokeWidth=0.5;fillColor=#f5f5f5;fontColor=#333333;strokeColor=#666666;fontSize=8;fontFamily=Comic Sans MS;fontStyle=0;align=center;" vertex="1" parent="1">
          <mxGeometry x="170" y="140" width="20" height="20" as="geometry" />
        </mxCell>
        <mxCell id="MfKM30S0lkw0a0lAKNxP-60" value="0.1" style="whiteSpace=wrap;html=1;aspect=fixed;strokeWidth=0.5;fillColor=#f5f5f5;fontColor=#333333;strokeColor=#666666;fontSize=8;fontFamily=Comic Sans MS;fontStyle=0" vertex="1" parent="1">
          <mxGeometry x="190" y="140" width="20" height="20" as="geometry" />
        </mxCell>
        <mxCell id="MfKM30S0lkw0a0lAKNxP-61" value="0.3" style="whiteSpace=wrap;html=1;aspect=fixed;strokeWidth=0.5;fillColor=#f5f5f5;fontColor=#333333;strokeColor=#666666;fontSize=8;fontFamily=Comic Sans MS;fontStyle=0" vertex="1" parent="1">
          <mxGeometry x="150" y="160" width="20" height="20" as="geometry" />
        </mxCell>
        <mxCell id="MfKM30S0lkw0a0lAKNxP-62" value="0.1" style="whiteSpace=wrap;html=1;aspect=fixed;strokeWidth=0.5;fillColor=#f5f5f5;fontColor=#333333;strokeColor=#666666;fontSize=8;fontFamily=Comic Sans MS;fontStyle=0;align=center;" vertex="1" parent="1">
          <mxGeometry x="170" y="160" width="20" height="20" as="geometry" />
        </mxCell>
        <mxCell id="MfKM30S0lkw0a0lAKNxP-63" value="0.6" style="whiteSpace=wrap;html=1;aspect=fixed;strokeWidth=0.5;fillColor=#f5f5f5;fontColor=#333333;strokeColor=#666666;fontSize=8;fontFamily=Comic Sans MS;fontStyle=0" vertex="1" parent="1">
          <mxGeometry x="190" y="160" width="20" height="20" as="geometry" />
        </mxCell>
        <mxCell id="MfKM30S0lkw0a0lAKNxP-64" value="0.4" style="whiteSpace=wrap;html=1;aspect=fixed;strokeWidth=0.5;fillColor=#f5f5f5;fontColor=#333333;strokeColor=#666666;fontSize=8;fontFamily=Comic Sans MS;fontStyle=0" vertex="1" parent="1">
          <mxGeometry x="150" y="180" width="20" height="20" as="geometry" />
        </mxCell>
        <mxCell id="MfKM30S0lkw0a0lAKNxP-65" value="0.1" style="whiteSpace=wrap;html=1;aspect=fixed;strokeWidth=0.5;fillColor=#f5f5f5;fontColor=#333333;strokeColor=#666666;fontSize=8;fontFamily=Comic Sans MS;fontStyle=0;align=center;" vertex="1" parent="1">
          <mxGeometry x="170" y="180" width="20" height="20" as="geometry" />
        </mxCell>
        <mxCell id="MfKM30S0lkw0a0lAKNxP-66" value="0.3" style="whiteSpace=wrap;html=1;aspect=fixed;strokeWidth=0.5;fillColor=#f5f5f5;fontColor=#333333;strokeColor=#666666;fontSize=8;fontFamily=Comic Sans MS;fontStyle=0" vertex="1" parent="1">
          <mxGeometry x="190" y="180" width="20" height="20" as="geometry" />
        </mxCell>
        <mxCell id="MfKM30S0lkw0a0lAKNxP-67" value="0.9" style="whiteSpace=wrap;html=1;aspect=fixed;strokeWidth=0.5;fillColor=#f5f5f5;fontColor=#333333;strokeColor=#666666;fontSize=8;fontFamily=Comic Sans MS;fontStyle=0" vertex="1" parent="1">
          <mxGeometry x="150" y="200" width="20" height="20" as="geometry" />
        </mxCell>
        <mxCell id="MfKM30S0lkw0a0lAKNxP-68" value="1.0" style="whiteSpace=wrap;html=1;aspect=fixed;strokeWidth=0.5;fillColor=#f5f5f5;fontColor=#333333;strokeColor=#666666;fontSize=8;fontFamily=Comic Sans MS;fontStyle=0;align=center;" vertex="1" parent="1">
          <mxGeometry x="170" y="200" width="20" height="20" as="geometry" />
        </mxCell>
        <mxCell id="MfKM30S0lkw0a0lAKNxP-69" value="1.0" style="whiteSpace=wrap;html=1;aspect=fixed;strokeWidth=0.5;fillColor=#f5f5f5;fontColor=#333333;strokeColor=#666666;fontSize=8;fontFamily=Comic Sans MS;fontStyle=0" vertex="1" parent="1">
          <mxGeometry x="190" y="200" width="20" height="20" as="geometry" />
        </mxCell>
        <mxCell id="MfKM30S0lkw0a0lAKNxP-70" value="$$q_1$$" style="text;html=1;align=center;verticalAlign=middle;whiteSpace=wrap;rounded=0;fontSize=8;" vertex="1" parent="1">
          <mxGeometry x="130" y="140" width="20" height="20" as="geometry" />
        </mxCell>
        <mxCell id="MfKM30S0lkw0a0lAKNxP-71" value="$$q_2$$" style="text;html=1;align=center;verticalAlign=middle;whiteSpace=wrap;rounded=0;fontSize=8;" vertex="1" parent="1">
          <mxGeometry x="130" y="160" width="20" height="20" as="geometry" />
        </mxCell>
        <mxCell id="MfKM30S0lkw0a0lAKNxP-72" value="$$q_3$$" style="text;html=1;align=center;verticalAlign=middle;whiteSpace=wrap;rounded=0;fontSize=8;" vertex="1" parent="1">
          <mxGeometry x="130" y="180" width="20" height="20" as="geometry" />
        </mxCell>
        <mxCell id="MfKM30S0lkw0a0lAKNxP-73" value="$$q_4$$" style="text;html=1;align=center;verticalAlign=middle;whiteSpace=wrap;rounded=0;fontSize=8;" vertex="1" parent="1">
          <mxGeometry x="130" y="200" width="20" height="20" as="geometry" />
        </mxCell>
        <mxCell id="MfKM30S0lkw0a0lAKNxP-74" value="$$\boldsymbol{W}_K$$" style="text;html=1;align=center;verticalAlign=middle;whiteSpace=wrap;rounded=0;fontSize=10;" vertex="1" parent="1">
          <mxGeometry x="50" y="270" width="30" height="15" as="geometry" />
        </mxCell>
        <mxCell id="MfKM30S0lkw0a0lAKNxP-75" value="" style="group" vertex="1" connectable="0" parent="1">
          <mxGeometry x="50" y="285" width="60" height="120" as="geometry" />
        </mxCell>
        <mxCell id="MfKM30S0lkw0a0lAKNxP-76" value="0" style="whiteSpace=wrap;html=1;aspect=fixed;strokeWidth=0.5;fillColor=#f5f5f5;fontColor=#333333;strokeColor=#666666;fontSize=8;fontFamily=Comic Sans MS;fontStyle=0" vertex="1" parent="MfKM30S0lkw0a0lAKNxP-75">
          <mxGeometry width="20" height="20" as="geometry" />
        </mxCell>
        <mxCell id="MfKM30S0lkw0a0lAKNxP-77" value="1" style="whiteSpace=wrap;html=1;aspect=fixed;strokeWidth=0.5;fillColor=#f5f5f5;fontColor=#333333;strokeColor=#666666;fontSize=8;fontFamily=Comic Sans MS;fontStyle=0;align=center;" vertex="1" parent="MfKM30S0lkw0a0lAKNxP-75">
          <mxGeometry x="20" width="20" height="20" as="geometry" />
        </mxCell>
        <mxCell id="MfKM30S0lkw0a0lAKNxP-78" value="1" style="whiteSpace=wrap;html=1;aspect=fixed;strokeWidth=0.5;fillColor=#f5f5f5;fontColor=#333333;strokeColor=#666666;fontSize=8;fontFamily=Comic Sans MS;fontStyle=0" vertex="1" parent="MfKM30S0lkw0a0lAKNxP-75">
          <mxGeometry x="40" width="20" height="20" as="geometry" />
        </mxCell>
        <mxCell id="MfKM30S0lkw0a0lAKNxP-79" value="1" style="whiteSpace=wrap;html=1;aspect=fixed;strokeWidth=0.5;fillColor=#f5f5f5;fontColor=#333333;strokeColor=#666666;fontSize=8;fontFamily=Comic Sans MS;fontStyle=0" vertex="1" parent="MfKM30S0lkw0a0lAKNxP-75">
          <mxGeometry y="20" width="20" height="20" as="geometry" />
        </mxCell>
        <mxCell id="MfKM30S0lkw0a0lAKNxP-80" value="1" style="whiteSpace=wrap;html=1;aspect=fixed;strokeWidth=0.5;fillColor=#f5f5f5;fontColor=#333333;strokeColor=#666666;fontSize=8;fontFamily=Comic Sans MS;fontStyle=0;align=center;" vertex="1" parent="MfKM30S0lkw0a0lAKNxP-75">
          <mxGeometry x="20" y="20" width="20" height="20" as="geometry" />
        </mxCell>
        <mxCell id="MfKM30S0lkw0a0lAKNxP-81" value="0" style="whiteSpace=wrap;html=1;aspect=fixed;strokeWidth=0.5;fillColor=#f5f5f5;fontColor=#333333;strokeColor=#666666;fontSize=8;fontFamily=Comic Sans MS;fontStyle=0" vertex="1" parent="MfKM30S0lkw0a0lAKNxP-75">
          <mxGeometry x="40" y="20" width="20" height="20" as="geometry" />
        </mxCell>
        <mxCell id="MfKM30S0lkw0a0lAKNxP-82" value="1" style="whiteSpace=wrap;html=1;aspect=fixed;strokeWidth=0.5;fillColor=#f5f5f5;fontColor=#333333;strokeColor=#666666;fontSize=8;fontFamily=Comic Sans MS;fontStyle=0" vertex="1" parent="MfKM30S0lkw0a0lAKNxP-75">
          <mxGeometry y="40" width="20" height="20" as="geometry" />
        </mxCell>
        <mxCell id="MfKM30S0lkw0a0lAKNxP-83" value="0" style="whiteSpace=wrap;html=1;aspect=fixed;strokeWidth=0.5;fillColor=#f5f5f5;fontColor=#333333;strokeColor=#666666;fontSize=8;fontFamily=Comic Sans MS;fontStyle=0;align=center;" vertex="1" parent="MfKM30S0lkw0a0lAKNxP-75">
          <mxGeometry x="20" y="40" width="20" height="20" as="geometry" />
        </mxCell>
        <mxCell id="MfKM30S0lkw0a0lAKNxP-84" value="0" style="whiteSpace=wrap;html=1;aspect=fixed;strokeWidth=0.5;fillColor=#f5f5f5;fontColor=#333333;strokeColor=#666666;fontSize=8;fontFamily=Comic Sans MS;fontStyle=0" vertex="1" parent="MfKM30S0lkw0a0lAKNxP-75">
          <mxGeometry x="40" y="40" width="20" height="20" as="geometry" />
        </mxCell>
        <mxCell id="MfKM30S0lkw0a0lAKNxP-85" value="0" style="whiteSpace=wrap;html=1;aspect=fixed;strokeWidth=0.5;fillColor=#f5f5f5;fontColor=#333333;strokeColor=#666666;fontSize=8;fontFamily=Comic Sans MS;fontStyle=0" vertex="1" parent="MfKM30S0lkw0a0lAKNxP-75">
          <mxGeometry y="80" width="20" height="20" as="geometry" />
        </mxCell>
        <mxCell id="MfKM30S0lkw0a0lAKNxP-86" value="0" style="whiteSpace=wrap;html=1;aspect=fixed;strokeWidth=0.5;fillColor=#f5f5f5;fontColor=#333333;strokeColor=#666666;fontSize=8;fontFamily=Comic Sans MS;fontStyle=0" vertex="1" parent="MfKM30S0lkw0a0lAKNxP-75">
          <mxGeometry x="20" y="80" width="20" height="20" as="geometry" />
        </mxCell>
        <mxCell id="MfKM30S0lkw0a0lAKNxP-87" value="0" style="whiteSpace=wrap;html=1;aspect=fixed;strokeWidth=0.5;fillColor=#f5f5f5;fontColor=#333333;strokeColor=#666666;fontSize=8;fontFamily=Comic Sans MS;fontStyle=0" vertex="1" parent="MfKM30S0lkw0a0lAKNxP-75">
          <mxGeometry x="40" y="80" width="20" height="20" as="geometry" />
        </mxCell>
        <mxCell id="MfKM30S0lkw0a0lAKNxP-88" value="1" style="whiteSpace=wrap;html=1;aspect=fixed;strokeWidth=0.5;fillColor=#f5f5f5;fontColor=#333333;strokeColor=#666666;fontSize=8;fontFamily=Comic Sans MS;fontStyle=0" vertex="1" parent="MfKM30S0lkw0a0lAKNxP-75">
          <mxGeometry y="60" width="20" height="20" as="geometry" />
        </mxCell>
        <mxCell id="MfKM30S0lkw0a0lAKNxP-89" value="1" style="whiteSpace=wrap;html=1;aspect=fixed;strokeWidth=0.5;fillColor=#f5f5f5;fontColor=#333333;strokeColor=#666666;fontSize=8;fontFamily=Comic Sans MS;fontStyle=0;align=center;" vertex="1" parent="MfKM30S0lkw0a0lAKNxP-75">
          <mxGeometry x="20" y="60" width="20" height="20" as="geometry" />
        </mxCell>
        <mxCell id="MfKM30S0lkw0a0lAKNxP-90" value="1" style="whiteSpace=wrap;html=1;aspect=fixed;strokeWidth=0.5;fillColor=#f5f5f5;fontColor=#333333;strokeColor=#666666;fontSize=8;fontFamily=Comic Sans MS;fontStyle=0" vertex="1" parent="MfKM30S0lkw0a0lAKNxP-75">
          <mxGeometry x="40" y="60" width="20" height="20" as="geometry" />
        </mxCell>
        <mxCell id="MfKM30S0lkw0a0lAKNxP-91" value="1" style="whiteSpace=wrap;html=1;aspect=fixed;strokeWidth=0.5;fillColor=#f5f5f5;fontColor=#333333;strokeColor=#666666;fontSize=8;fontFamily=Comic Sans MS;fontStyle=0" vertex="1" parent="MfKM30S0lkw0a0lAKNxP-75">
          <mxGeometry y="100" width="20" height="20" as="geometry" />
        </mxCell>
        <mxCell id="MfKM30S0lkw0a0lAKNxP-92" value="0" style="whiteSpace=wrap;html=1;aspect=fixed;strokeWidth=0.5;fillColor=#f5f5f5;fontColor=#333333;strokeColor=#666666;fontSize=8;fontFamily=Comic Sans MS;fontStyle=0" vertex="1" parent="MfKM30S0lkw0a0lAKNxP-75">
          <mxGeometry x="20" y="100" width="20" height="20" as="geometry" />
        </mxCell>
        <mxCell id="MfKM30S0lkw0a0lAKNxP-93" value="1" style="whiteSpace=wrap;html=1;aspect=fixed;strokeWidth=0.5;fillColor=#f5f5f5;fontColor=#333333;strokeColor=#666666;fontSize=8;fontFamily=Comic Sans MS;fontStyle=0" vertex="1" parent="MfKM30S0lkw0a0lAKNxP-75">
          <mxGeometry x="40" y="100" width="20" height="20" as="geometry" />
        </mxCell>
        <mxCell id="MfKM30S0lkw0a0lAKNxP-94" value="0.4" style="whiteSpace=wrap;html=1;aspect=fixed;strokeWidth=0.5;fillColor=#f5f5f5;fontColor=#333333;strokeColor=#666666;fontSize=8;fontFamily=Comic Sans MS;fontStyle=0" vertex="1" parent="1">
          <mxGeometry x="150" y="285" width="20" height="20" as="geometry" />
        </mxCell>
        <mxCell id="MfKM30S0lkw0a0lAKNxP-95" value="0.6" style="whiteSpace=wrap;html=1;aspect=fixed;strokeWidth=0.5;fillColor=#f5f5f5;fontColor=#333333;strokeColor=#666666;fontSize=8;fontFamily=Comic Sans MS;fontStyle=0;align=center;" vertex="1" parent="1">
          <mxGeometry x="170" y="285" width="20" height="20" as="geometry" />
        </mxCell>
        <mxCell id="MfKM30S0lkw0a0lAKNxP-96" value="0.7" style="whiteSpace=wrap;html=1;aspect=fixed;strokeWidth=0.5;fillColor=#f5f5f5;fontColor=#333333;strokeColor=#666666;fontSize=8;fontFamily=Comic Sans MS;fontStyle=0" vertex="1" parent="1">
          <mxGeometry x="190" y="285" width="20" height="20" as="geometry" />
        </mxCell>
        <mxCell id="MfKM30S0lkw0a0lAKNxP-97" value="0.3" style="whiteSpace=wrap;html=1;aspect=fixed;strokeWidth=0.5;fillColor=#f5f5f5;fontColor=#333333;strokeColor=#666666;fontSize=8;fontFamily=Comic Sans MS;fontStyle=0" vertex="1" parent="1">
          <mxGeometry x="150" y="305" width="20" height="20" as="geometry" />
        </mxCell>
        <mxCell id="MfKM30S0lkw0a0lAKNxP-98" value="0.2" style="whiteSpace=wrap;html=1;aspect=fixed;strokeWidth=0.5;fillColor=#f5f5f5;fontColor=#333333;strokeColor=#666666;fontSize=8;fontFamily=Comic Sans MS;fontStyle=0;align=center;" vertex="1" parent="1">
          <mxGeometry x="170" y="305" width="20" height="20" as="geometry" />
        </mxCell>
        <mxCell id="MfKM30S0lkw0a0lAKNxP-99" value="0.1" style="whiteSpace=wrap;html=1;aspect=fixed;strokeWidth=0.5;fillColor=#f5f5f5;fontColor=#333333;strokeColor=#666666;fontSize=8;fontFamily=Comic Sans MS;fontStyle=0" vertex="1" parent="1">
          <mxGeometry x="190" y="305" width="20" height="20" as="geometry" />
        </mxCell>
        <mxCell id="MfKM30S0lkw0a0lAKNxP-100" value="0.2" style="whiteSpace=wrap;html=1;aspect=fixed;strokeWidth=0.5;fillColor=#f5f5f5;fontColor=#333333;strokeColor=#666666;fontSize=8;fontFamily=Comic Sans MS;fontStyle=0" vertex="1" parent="1">
          <mxGeometry x="150" y="325" width="20" height="20" as="geometry" />
        </mxCell>
        <mxCell id="MfKM30S0lkw0a0lAKNxP-101" value="0.4" style="whiteSpace=wrap;html=1;aspect=fixed;strokeWidth=0.5;fillColor=#f5f5f5;fontColor=#333333;strokeColor=#666666;fontSize=8;fontFamily=Comic Sans MS;fontStyle=0;align=center;" vertex="1" parent="1">
          <mxGeometry x="170" y="325" width="20" height="20" as="geometry" />
        </mxCell>
        <mxCell id="MfKM30S0lkw0a0lAKNxP-102" value="0.5" style="whiteSpace=wrap;html=1;aspect=fixed;strokeWidth=0.5;fillColor=#f5f5f5;fontColor=#333333;strokeColor=#666666;fontSize=8;fontFamily=Comic Sans MS;fontStyle=0" vertex="1" parent="1">
          <mxGeometry x="190" y="325" width="20" height="20" as="geometry" />
        </mxCell>
        <mxCell id="MfKM30S0lkw0a0lAKNxP-103" value="1.3" style="whiteSpace=wrap;html=1;aspect=fixed;strokeWidth=0.5;fillColor=#f5f5f5;fontColor=#333333;strokeColor=#666666;fontSize=8;fontFamily=Comic Sans MS;fontStyle=0" vertex="1" parent="1">
          <mxGeometry x="150" y="345" width="20" height="20" as="geometry" />
        </mxCell>
        <mxCell id="MfKM30S0lkw0a0lAKNxP-104" value="1.4" style="whiteSpace=wrap;html=1;aspect=fixed;strokeWidth=0.5;fillColor=#f5f5f5;fontColor=#333333;strokeColor=#666666;fontSize=8;fontFamily=Comic Sans MS;fontStyle=0;align=center;" vertex="1" parent="1">
          <mxGeometry x="170" y="345" width="20" height="20" as="geometry" />
        </mxCell>
        <mxCell id="MfKM30S0lkw0a0lAKNxP-105" value="1.4" style="whiteSpace=wrap;html=1;aspect=fixed;strokeWidth=0.5;fillColor=#f5f5f5;fontColor=#333333;strokeColor=#666666;fontSize=8;fontFamily=Comic Sans MS;fontStyle=0" vertex="1" parent="1">
          <mxGeometry x="190" y="345" width="20" height="20" as="geometry" />
        </mxCell>
        <mxCell id="MfKM30S0lkw0a0lAKNxP-106" value="$$k_1$$" style="text;html=1;align=center;verticalAlign=middle;whiteSpace=wrap;rounded=0;fontSize=8;" vertex="1" parent="1">
          <mxGeometry x="130" y="285" width="20" height="20" as="geometry" />
        </mxCell>
        <mxCell id="MfKM30S0lkw0a0lAKNxP-107" value="$$k_2$$" style="text;html=1;align=center;verticalAlign=middle;whiteSpace=wrap;rounded=0;fontSize=8;" vertex="1" parent="1">
          <mxGeometry x="130" y="305" width="20" height="20" as="geometry" />
        </mxCell>
        <mxCell id="MfKM30S0lkw0a0lAKNxP-108" value="$$k_3$$" style="text;html=1;align=center;verticalAlign=middle;whiteSpace=wrap;rounded=0;fontSize=8;" vertex="1" parent="1">
          <mxGeometry x="130" y="325" width="20" height="20" as="geometry" />
        </mxCell>
        <mxCell id="MfKM30S0lkw0a0lAKNxP-109" value="$$k_4$$" style="text;html=1;align=center;verticalAlign=middle;whiteSpace=wrap;rounded=0;fontSize=8;" vertex="1" parent="1">
          <mxGeometry x="130" y="345" width="20" height="20" as="geometry" />
        </mxCell>
        <mxCell id="MfKM30S0lkw0a0lAKNxP-25" value="$$x_1$$" style="text;html=1;align=center;verticalAlign=middle;whiteSpace=wrap;rounded=0;fontSize=8;container=0;" vertex="1" parent="1">
          <mxGeometry x="120" y="40" width="20" height="20" as="geometry" />
        </mxCell>
        <mxCell id="MfKM30S0lkw0a0lAKNxP-26" value="$$x_2$$" style="text;html=1;align=center;verticalAlign=middle;whiteSpace=wrap;rounded=0;fontSize=8;container=0;" vertex="1" parent="1">
          <mxGeometry x="120" y="60" width="20" height="20" as="geometry" />
        </mxCell>
        <mxCell id="MfKM30S0lkw0a0lAKNxP-27" value="$$x_3$$" style="text;html=1;align=center;verticalAlign=middle;whiteSpace=wrap;rounded=0;fontSize=8;container=0;" vertex="1" parent="1">
          <mxGeometry x="120" y="80" width="20" height="20" as="geometry" />
        </mxCell>
        <mxCell id="MfKM30S0lkw0a0lAKNxP-28" value="$$x_4$$" style="text;html=1;align=center;verticalAlign=middle;whiteSpace=wrap;rounded=0;fontSize=8;container=0;" vertex="1" parent="1">
          <mxGeometry x="120" y="100" width="20" height="20" as="geometry" />
        </mxCell>
        <mxCell id="MfKM30S0lkw0a0lAKNxP-110" value="$$\boldsymbol{X}$$" style="text;html=1;align=center;verticalAlign=middle;whiteSpace=wrap;rounded=0;fontSize=10;container=0;" vertex="1" parent="1">
          <mxGeometry x="140" y="25" width="30" height="15" as="geometry" />
        </mxCell>
        <mxCell id="MfKM30S0lkw0a0lAKNxP-1" value="0.5" style="whiteSpace=wrap;html=1;aspect=fixed;strokeWidth=0.5;fillColor=#f5f5f5;fontColor=#333333;strokeColor=#666666;fontSize=8;fontFamily=Comic Sans MS;fontStyle=0;container=0;" vertex="1" parent="1">
          <mxGeometry x="140" y="40" width="20" height="20" as="geometry" />
        </mxCell>
        <mxCell id="MfKM30S0lkw0a0lAKNxP-2" value="0" style="whiteSpace=wrap;html=1;aspect=fixed;strokeWidth=0.5;fillColor=#f5f5f5;fontColor=#333333;strokeColor=#666666;fontSize=8;fontFamily=Comic Sans MS;fontStyle=0;align=center;container=0;" vertex="1" parent="1">
          <mxGeometry x="160" y="40" width="20" height="20" as="geometry" />
        </mxCell>
        <mxCell id="MfKM30S0lkw0a0lAKNxP-3" value="0.2" style="whiteSpace=wrap;html=1;aspect=fixed;strokeWidth=0.5;fillColor=#f5f5f5;fontColor=#333333;strokeColor=#666666;fontSize=8;fontFamily=Comic Sans MS;fontStyle=0;container=0;" vertex="1" parent="1">
          <mxGeometry x="180" y="40" width="20" height="20" as="geometry" />
        </mxCell>
        <mxCell id="MfKM30S0lkw0a0lAKNxP-4" value="0.1" style="whiteSpace=wrap;html=1;aspect=fixed;strokeWidth=0.5;fillColor=#f5f5f5;fontColor=#333333;strokeColor=#666666;fontSize=8;fontFamily=Comic Sans MS;fontStyle=0;container=0;" vertex="1" parent="1">
          <mxGeometry x="200" y="40" width="20" height="20" as="geometry" />
        </mxCell>
        <mxCell id="MfKM30S0lkw0a0lAKNxP-5" value="0" style="whiteSpace=wrap;html=1;aspect=fixed;strokeWidth=0.5;fillColor=#f5f5f5;fontColor=#333333;strokeColor=#666666;fontSize=8;fontFamily=Comic Sans MS;fontStyle=0;container=0;" vertex="1" parent="1">
          <mxGeometry x="220" y="40" width="20" height="20" as="geometry" />
        </mxCell>
        <mxCell id="MfKM30S0lkw0a0lAKNxP-6" value="0.1" style="whiteSpace=wrap;html=1;aspect=fixed;strokeWidth=0.5;fillColor=#f5f5f5;fontColor=#333333;strokeColor=#666666;fontSize=8;fontFamily=Comic Sans MS;fontStyle=0;container=0;" vertex="1" parent="1">
          <mxGeometry x="240" y="40" width="20" height="20" as="geometry" />
        </mxCell>
        <mxCell id="MfKM30S0lkw0a0lAKNxP-7" value="0.1" style="whiteSpace=wrap;html=1;aspect=fixed;strokeWidth=0.5;fillColor=#f5f5f5;fontColor=#333333;strokeColor=#666666;fontSize=8;fontFamily=Comic Sans MS;fontStyle=0;container=0;" vertex="1" parent="1">
          <mxGeometry x="140" y="60" width="20" height="20" as="geometry" />
        </mxCell>
        <mxCell id="MfKM30S0lkw0a0lAKNxP-8" value="0.1" style="whiteSpace=wrap;html=1;aspect=fixed;strokeWidth=0.5;fillColor=#f5f5f5;fontColor=#333333;strokeColor=#666666;fontSize=8;fontFamily=Comic Sans MS;fontStyle=0;align=center;container=0;" vertex="1" parent="1">
          <mxGeometry x="160" y="60" width="20" height="20" as="geometry" />
        </mxCell>
        <mxCell id="MfKM30S0lkw0a0lAKNxP-9" value="0.2" style="whiteSpace=wrap;html=1;aspect=fixed;strokeWidth=0.5;fillColor=#f5f5f5;fontColor=#333333;strokeColor=#666666;fontSize=8;fontFamily=Comic Sans MS;fontStyle=0;container=0;" vertex="1" parent="1">
          <mxGeometry x="180" y="60" width="20" height="20" as="geometry" />
        </mxCell>
        <mxCell id="MfKM30S0lkw0a0lAKNxP-10" value="0" style="whiteSpace=wrap;html=1;aspect=fixed;strokeWidth=0.5;fillColor=#f5f5f5;fontColor=#333333;strokeColor=#666666;fontSize=8;fontFamily=Comic Sans MS;fontStyle=0;container=0;" vertex="1" parent="1">
          <mxGeometry x="200" y="60" width="20" height="20" as="geometry" />
        </mxCell>
        <mxCell id="MfKM30S0lkw0a0lAKNxP-11" value="0.5" style="whiteSpace=wrap;html=1;aspect=fixed;strokeWidth=0.5;fillColor=#f5f5f5;fontColor=#333333;strokeColor=#666666;fontSize=8;fontFamily=Comic Sans MS;fontStyle=0;container=0;" vertex="1" parent="1">
          <mxGeometry x="220" y="60" width="20" height="20" as="geometry" />
        </mxCell>
        <mxCell id="MfKM30S0lkw0a0lAKNxP-12" value="0" style="whiteSpace=wrap;html=1;aspect=fixed;strokeWidth=0.5;fillColor=#f5f5f5;fontColor=#333333;strokeColor=#666666;fontSize=8;fontFamily=Comic Sans MS;fontStyle=0;container=0;" vertex="1" parent="1">
          <mxGeometry x="240" y="60" width="20" height="20" as="geometry" />
        </mxCell>
        <mxCell id="MfKM30S0lkw0a0lAKNxP-13" value="0.3" style="whiteSpace=wrap;html=1;aspect=fixed;strokeWidth=0.5;fillColor=#f5f5f5;fontColor=#333333;strokeColor=#666666;fontSize=8;fontFamily=Comic Sans MS;fontStyle=0;container=0;" vertex="1" parent="1">
          <mxGeometry x="140" y="80" width="20" height="20" as="geometry" />
        </mxCell>
        <mxCell id="MfKM30S0lkw0a0lAKNxP-14" value="0" style="whiteSpace=wrap;html=1;aspect=fixed;strokeWidth=0.5;fillColor=#f5f5f5;fontColor=#333333;strokeColor=#666666;fontSize=8;fontFamily=Comic Sans MS;fontStyle=0;align=center;container=0;" vertex="1" parent="1">
          <mxGeometry x="160" y="80" width="20" height="20" as="geometry" />
        </mxCell>
        <mxCell id="MfKM30S0lkw0a0lAKNxP-15" value="0" style="whiteSpace=wrap;html=1;aspect=fixed;strokeWidth=0.5;fillColor=#f5f5f5;fontColor=#333333;strokeColor=#666666;fontSize=8;fontFamily=Comic Sans MS;fontStyle=0;container=0;" vertex="1" parent="1">
          <mxGeometry x="180" y="80" width="20" height="20" as="geometry" />
        </mxCell>
        <mxCell id="MfKM30S0lkw0a0lAKNxP-16" value="0.1" style="whiteSpace=wrap;html=1;aspect=fixed;strokeWidth=0.5;fillColor=#f5f5f5;fontColor=#333333;strokeColor=#666666;fontSize=8;fontFamily=Comic Sans MS;fontStyle=0;container=0;" vertex="1" parent="1">
          <mxGeometry x="200" y="80" width="20" height="20" as="geometry" />
        </mxCell>
        <mxCell id="MfKM30S0lkw0a0lAKNxP-17" value="0.2" style="whiteSpace=wrap;html=1;aspect=fixed;strokeWidth=0.5;fillColor=#f5f5f5;fontColor=#333333;strokeColor=#666666;fontSize=8;fontFamily=Comic Sans MS;fontStyle=0;container=0;" vertex="1" parent="1">
          <mxGeometry x="220" y="80" width="20" height="20" as="geometry" />
        </mxCell>
        <mxCell id="MfKM30S0lkw0a0lAKNxP-18" value="0.1" style="whiteSpace=wrap;html=1;aspect=fixed;strokeWidth=0.5;fillColor=#f5f5f5;fontColor=#333333;strokeColor=#666666;fontSize=8;fontFamily=Comic Sans MS;fontStyle=0;container=0;" vertex="1" parent="1">
          <mxGeometry x="240" y="80" width="20" height="20" as="geometry" />
        </mxCell>
        <mxCell id="MfKM30S0lkw0a0lAKNxP-19" value="0.6" style="whiteSpace=wrap;html=1;aspect=fixed;strokeWidth=0.5;fillColor=#f5f5f5;fontColor=#333333;strokeColor=#666666;fontSize=8;fontFamily=Comic Sans MS;fontStyle=0;container=0;" vertex="1" parent="1">
          <mxGeometry x="140" y="100" width="20" height="20" as="geometry" />
        </mxCell>
        <mxCell id="MfKM30S0lkw0a0lAKNxP-20" value="0.5" style="whiteSpace=wrap;html=1;aspect=fixed;strokeWidth=0.5;fillColor=#f5f5f5;fontColor=#333333;strokeColor=#666666;fontSize=8;fontFamily=Comic Sans MS;fontStyle=0;align=center;container=0;" vertex="1" parent="1">
          <mxGeometry x="160" y="100" width="20" height="20" as="geometry" />
        </mxCell>
        <mxCell id="MfKM30S0lkw0a0lAKNxP-21" value="0" style="whiteSpace=wrap;html=1;aspect=fixed;strokeWidth=0.5;fillColor=#f5f5f5;fontColor=#333333;strokeColor=#666666;fontSize=8;fontFamily=Comic Sans MS;fontStyle=0;container=0;" vertex="1" parent="1">
          <mxGeometry x="180" y="100" width="20" height="20" as="geometry" />
        </mxCell>
        <mxCell id="MfKM30S0lkw0a0lAKNxP-22" value="0.3" style="whiteSpace=wrap;html=1;aspect=fixed;strokeWidth=0.5;fillColor=#f5f5f5;fontColor=#333333;strokeColor=#666666;fontSize=8;fontFamily=Comic Sans MS;fontStyle=0;container=0;" vertex="1" parent="1">
          <mxGeometry x="200" y="100" width="20" height="20" as="geometry" />
        </mxCell>
        <mxCell id="MfKM30S0lkw0a0lAKNxP-23" value="0.2" style="whiteSpace=wrap;html=1;aspect=fixed;strokeWidth=0.5;fillColor=#f5f5f5;fontColor=#333333;strokeColor=#666666;fontSize=8;fontFamily=Comic Sans MS;fontStyle=0;container=0;" vertex="1" parent="1">
          <mxGeometry x="220" y="100" width="20" height="20" as="geometry" />
        </mxCell>
        <mxCell id="MfKM30S0lkw0a0lAKNxP-24" value="0.5" style="whiteSpace=wrap;html=1;aspect=fixed;strokeWidth=0.5;fillColor=#f5f5f5;fontColor=#333333;strokeColor=#666666;fontSize=8;fontFamily=Comic Sans MS;fontStyle=0;container=0;" vertex="1" parent="1">
          <mxGeometry x="240" y="100" width="20" height="20" as="geometry" />
        </mxCell>
        <mxCell id="MAAAuruS-whw0iSs_L9g-1" value="$$\boldsymbol{\text{query}}$$" style="text;html=1;align=center;verticalAlign=middle;whiteSpace=wrap;rounded=0;fontSize=8;container=0;" vertex="1" parent="1">
          <mxGeometry x="105" y="462" width="30" height="16" as="geometry" />
        </mxCell>
        <mxCell id="MAAAuruS-whw0iSs_L9g-2" value="0.1" style="whiteSpace=wrap;html=1;aspect=fixed;strokeWidth=0.5;fillColor=#d5e8d4;strokeColor=#82b366;fontSize=8;fontFamily=Comic Sans MS;fontStyle=0;container=0;" vertex="1" parent="1">
          <mxGeometry x="140" y="460" width="20" height="20" as="geometry" />
        </mxCell>
        <mxCell id="MAAAuruS-whw0iSs_L9g-3" value="0.2" style="whiteSpace=wrap;html=1;aspect=fixed;strokeWidth=0.5;fillColor=#d5e8d4;strokeColor=#82b366;fontSize=8;fontFamily=Comic Sans MS;fontStyle=0;align=center;container=0;" vertex="1" parent="1">
          <mxGeometry x="160" y="460" width="20" height="20" as="geometry" />
        </mxCell>
        <mxCell id="MAAAuruS-whw0iSs_L9g-4" value="0.3" style="whiteSpace=wrap;html=1;aspect=fixed;strokeWidth=0.5;fillColor=#d5e8d4;strokeColor=#82b366;fontSize=8;fontFamily=Comic Sans MS;fontStyle=0;container=0;" vertex="1" parent="1">
          <mxGeometry x="180" y="460" width="20" height="20" as="geometry" />
        </mxCell>
        <mxCell id="MAAAuruS-whw0iSs_L9g-5" value="0.4" style="whiteSpace=wrap;html=1;aspect=fixed;strokeWidth=0.5;fillColor=#d5e8d4;strokeColor=#82b366;fontSize=8;fontFamily=Comic Sans MS;fontStyle=0;container=0;" vertex="1" parent="1">
          <mxGeometry x="200" y="460" width="20" height="20" as="geometry" />
        </mxCell>
        <mxCell id="MAAAuruS-whw0iSs_L9g-8" value="0.8" style="whiteSpace=wrap;html=1;aspect=fixed;strokeWidth=0.5;fillColor=#ffe6cc;strokeColor=#d79b00;fontSize=8;fontFamily=Comic Sans MS;fontStyle=0;container=0;" vertex="1" parent="1">
          <mxGeometry x="140" y="510" width="20" height="20" as="geometry" />
        </mxCell>
        <mxCell id="MAAAuruS-whw0iSs_L9g-9" value="0.6" style="whiteSpace=wrap;html=1;aspect=fixed;strokeWidth=0.5;fillColor=#ffe6cc;strokeColor=#d79b00;fontSize=8;fontFamily=Comic Sans MS;fontStyle=0;align=center;container=0;" vertex="1" parent="1">
          <mxGeometry x="160" y="510" width="20" height="20" as="geometry" />
        </mxCell>
        <mxCell id="MAAAuruS-whw0iSs_L9g-10" value="0.4" style="whiteSpace=wrap;html=1;aspect=fixed;strokeWidth=0.5;fillColor=#ffe6cc;strokeColor=#d79b00;fontSize=8;fontFamily=Comic Sans MS;fontStyle=0;container=0;" vertex="1" parent="1">
          <mxGeometry x="180" y="510" width="20" height="20" as="geometry" />
        </mxCell>
        <mxCell id="MAAAuruS-whw0iSs_L9g-11" value="0.2" style="whiteSpace=wrap;html=1;aspect=fixed;strokeWidth=0.5;fillColor=#ffe6cc;strokeColor=#d79b00;fontSize=8;fontFamily=Comic Sans MS;fontStyle=0;container=0;" vertex="1" parent="1">
          <mxGeometry x="200" y="510" width="20" height="20" as="geometry" />
        </mxCell>
        <mxCell id="MAAAuruS-whw0iSs_L9g-14" value="0.7" style="whiteSpace=wrap;html=1;aspect=fixed;strokeWidth=0.5;fillColor=#fff2cc;strokeColor=#d6b656;fontSize=8;fontFamily=Comic Sans MS;fontStyle=0;container=0;" vertex="1" parent="1">
          <mxGeometry x="230" y="510" width="20" height="20" as="geometry" />
        </mxCell>
        <mxCell id="MAAAuruS-whw0iSs_L9g-15" value="0.6" style="whiteSpace=wrap;html=1;aspect=fixed;strokeWidth=0.5;fillColor=#fff2cc;strokeColor=#d6b656;fontSize=8;fontFamily=Comic Sans MS;fontStyle=0;align=center;container=0;" vertex="1" parent="1">
          <mxGeometry x="250" y="510" width="20" height="20" as="geometry" />
        </mxCell>
        <mxCell id="MAAAuruS-whw0iSs_L9g-16" value="0.5" style="whiteSpace=wrap;html=1;aspect=fixed;strokeWidth=0.5;fillColor=#fff2cc;strokeColor=#d6b656;fontSize=8;fontFamily=Comic Sans MS;fontStyle=0;container=0;" vertex="1" parent="1">
          <mxGeometry x="270" y="510" width="20" height="20" as="geometry" />
        </mxCell>
        <mxCell id="MAAAuruS-whw0iSs_L9g-17" value="0.4" style="whiteSpace=wrap;html=1;aspect=fixed;strokeWidth=0.5;fillColor=#fff2cc;strokeColor=#d6b656;fontSize=8;fontFamily=Comic Sans MS;fontStyle=0;container=0;" vertex="1" parent="1">
          <mxGeometry x="290" y="510" width="20" height="20" as="geometry" />
        </mxCell>
        <mxCell id="MAAAuruS-whw0iSs_L9g-18" value="" style="whiteSpace=wrap;html=1;aspect=fixed;strokeWidth=0.5;fillColor=#ffe6cc;strokeColor=#d79b00;fontSize=8;fontFamily=Comic Sans MS;fontStyle=0;container=0;" vertex="1" parent="1">
          <mxGeometry x="140" y="546" width="20" height="20" as="geometry" />
        </mxCell>
        <mxCell id="MAAAuruS-whw0iSs_L9g-19" value="" style="whiteSpace=wrap;html=1;aspect=fixed;strokeWidth=0.5;fillColor=#ffe6cc;strokeColor=#d79b00;fontSize=8;fontFamily=Comic Sans MS;fontStyle=0;align=center;container=0;" vertex="1" parent="1">
          <mxGeometry x="160" y="546" width="20" height="20" as="geometry" />
        </mxCell>
        <mxCell id="MAAAuruS-whw0iSs_L9g-20" value="" style="whiteSpace=wrap;html=1;aspect=fixed;strokeWidth=0.5;fillColor=#ffe6cc;strokeColor=#d79b00;fontSize=8;fontFamily=Comic Sans MS;fontStyle=0;container=0;" vertex="1" parent="1">
          <mxGeometry x="180" y="546" width="20" height="20" as="geometry" />
        </mxCell>
        <mxCell id="MAAAuruS-whw0iSs_L9g-21" value="" style="whiteSpace=wrap;html=1;aspect=fixed;strokeWidth=0.5;fillColor=#ffe6cc;strokeColor=#d79b00;fontSize=8;fontFamily=Comic Sans MS;fontStyle=0;container=0;" vertex="1" parent="1">
          <mxGeometry x="200" y="546" width="20" height="20" as="geometry" />
        </mxCell>
        <mxCell id="MAAAuruS-whw0iSs_L9g-22" value="" style="whiteSpace=wrap;html=1;aspect=fixed;strokeWidth=0.5;fillColor=#fff2cc;strokeColor=#d6b656;fontSize=8;fontFamily=Comic Sans MS;fontStyle=0;container=0;" vertex="1" parent="1">
          <mxGeometry x="230" y="546" width="20" height="20" as="geometry" />
        </mxCell>
        <mxCell id="MAAAuruS-whw0iSs_L9g-23" value="" style="whiteSpace=wrap;html=1;aspect=fixed;strokeWidth=0.5;fillColor=#fff2cc;strokeColor=#d6b656;fontSize=8;fontFamily=Comic Sans MS;fontStyle=0;align=center;container=0;" vertex="1" parent="1">
          <mxGeometry x="250" y="546" width="20" height="20" as="geometry" />
        </mxCell>
        <mxCell id="MAAAuruS-whw0iSs_L9g-24" value="" style="whiteSpace=wrap;html=1;aspect=fixed;strokeWidth=0.5;fillColor=#fff2cc;strokeColor=#d6b656;fontSize=8;fontFamily=Comic Sans MS;fontStyle=0;container=0;" vertex="1" parent="1">
          <mxGeometry x="270" y="546" width="20" height="20" as="geometry" />
        </mxCell>
        <mxCell id="MAAAuruS-whw0iSs_L9g-25" value="" style="whiteSpace=wrap;html=1;aspect=fixed;strokeWidth=0.5;fillColor=#fff2cc;strokeColor=#d6b656;fontSize=8;fontFamily=Comic Sans MS;fontStyle=0;container=0;" vertex="1" parent="1">
          <mxGeometry x="290" y="546" width="20" height="20" as="geometry" />
        </mxCell>
        <mxCell id="MAAAuruS-whw0iSs_L9g-26" value="0.3" style="whiteSpace=wrap;html=1;aspect=fixed;strokeWidth=0.5;fillColor=#ffe6cc;strokeColor=#d79b00;fontSize=8;fontFamily=Comic Sans MS;fontStyle=0;container=0;" vertex="1" parent="1">
          <mxGeometry x="140" y="582" width="20" height="20" as="geometry" />
        </mxCell>
        <mxCell id="MAAAuruS-whw0iSs_L9g-27" value="0.5" style="whiteSpace=wrap;html=1;aspect=fixed;strokeWidth=0.5;fillColor=#ffe6cc;strokeColor=#d79b00;fontSize=8;fontFamily=Comic Sans MS;fontStyle=0;align=center;container=0;" vertex="1" parent="1">
          <mxGeometry x="160" y="582" width="20" height="20" as="geometry" />
        </mxCell>
        <mxCell id="MAAAuruS-whw0iSs_L9g-28" value="0.7" style="whiteSpace=wrap;html=1;aspect=fixed;strokeWidth=0.5;fillColor=#ffe6cc;strokeColor=#d79b00;fontSize=8;fontFamily=Comic Sans MS;fontStyle=0;container=0;" vertex="1" parent="1">
          <mxGeometry x="180" y="582" width="20" height="20" as="geometry" />
        </mxCell>
        <mxCell id="MAAAuruS-whw0iSs_L9g-29" value="0.9" style="whiteSpace=wrap;html=1;aspect=fixed;strokeWidth=0.5;fillColor=#ffe6cc;strokeColor=#d79b00;fontSize=8;fontFamily=Comic Sans MS;fontStyle=0;container=0;" vertex="1" parent="1">
          <mxGeometry x="200" y="582" width="20" height="20" as="geometry" />
        </mxCell>
        <mxCell id="MAAAuruS-whw0iSs_L9g-30" value="0.2" style="whiteSpace=wrap;html=1;aspect=fixed;strokeWidth=0.5;fillColor=#fff2cc;strokeColor=#d6b656;fontSize=8;fontFamily=Comic Sans MS;fontStyle=0;container=0;" vertex="1" parent="1">
          <mxGeometry x="230" y="582" width="20" height="20" as="geometry" />
        </mxCell>
        <mxCell id="MAAAuruS-whw0iSs_L9g-31" value="0.4" style="whiteSpace=wrap;html=1;aspect=fixed;strokeWidth=0.5;fillColor=#fff2cc;strokeColor=#d6b656;fontSize=8;fontFamily=Comic Sans MS;fontStyle=0;align=center;container=0;" vertex="1" parent="1">
          <mxGeometry x="250" y="582" width="20" height="20" as="geometry" />
        </mxCell>
        <mxCell id="MAAAuruS-whw0iSs_L9g-32" value="0.6" style="whiteSpace=wrap;html=1;aspect=fixed;strokeWidth=0.5;fillColor=#fff2cc;strokeColor=#d6b656;fontSize=8;fontFamily=Comic Sans MS;fontStyle=0;container=0;" vertex="1" parent="1">
          <mxGeometry x="270" y="582" width="20" height="20" as="geometry" />
        </mxCell>
        <mxCell id="MAAAuruS-whw0iSs_L9g-33" value="0.8" style="whiteSpace=wrap;html=1;aspect=fixed;strokeWidth=0.5;fillColor=#fff2cc;strokeColor=#d6b656;fontSize=8;fontFamily=Comic Sans MS;fontStyle=0;container=0;" vertex="1" parent="1">
          <mxGeometry x="290" y="582" width="20" height="20" as="geometry" />
        </mxCell>
        <mxCell id="MAAAuruS-whw0iSs_L9g-34" value="$$\boldsymbol{\text{key}}_1$$" style="text;html=1;align=center;verticalAlign=middle;whiteSpace=wrap;rounded=0;fontSize=8;container=0;" vertex="1" parent="1">
          <mxGeometry x="140" y="494" width="30" height="16" as="geometry" />
        </mxCell>
        <mxCell id="MAAAuruS-whw0iSs_L9g-35" value="$$\boldsymbol{\text{key}}_n$$" style="text;html=1;align=center;verticalAlign=middle;whiteSpace=wrap;rounded=0;fontSize=8;container=0;" vertex="1" parent="1">
          <mxGeometry x="140" y="566" width="30" height="16" as="geometry" />
        </mxCell>
        <mxCell id="MAAAuruS-whw0iSs_L9g-36" value="$$\boldsymbol{\text{key}}_i$$" style="text;html=1;align=center;verticalAlign=middle;whiteSpace=wrap;rounded=0;fontSize=8;container=0;" vertex="1" parent="1">
          <mxGeometry x="140" y="530" width="30" height="16" as="geometry" />
        </mxCell>
        <mxCell id="MAAAuruS-whw0iSs_L9g-37" value="$$\boldsymbol{\text{value}}_1$$" style="text;html=1;align=center;verticalAlign=middle;whiteSpace=wrap;rounded=0;fontSize=8;container=0;" vertex="1" parent="1">
          <mxGeometry x="230" y="494" width="30" height="16" as="geometry" />
        </mxCell>
        <mxCell id="MAAAuruS-whw0iSs_L9g-38" value="$$\boldsymbol{\text{value}}_i$$" style="text;html=1;align=center;verticalAlign=middle;whiteSpace=wrap;rounded=0;fontSize=8;container=0;" vertex="1" parent="1">
          <mxGeometry x="230" y="530" width="30" height="16" as="geometry" />
        </mxCell>
        <mxCell id="MAAAuruS-whw0iSs_L9g-39" value="$$\boldsymbol{\text{value}}_n$$" style="text;html=1;align=center;verticalAlign=middle;whiteSpace=wrap;rounded=0;fontSize=8;container=0;" vertex="1" parent="1">
          <mxGeometry x="230" y="566" width="30" height="16" as="geometry" />
        </mxCell>
        <mxCell id="MAAAuruS-whw0iSs_L9g-40" value="$$\text{key-value}$$" style="text;html=1;align=right;verticalAlign=middle;whiteSpace=wrap;rounded=0;fontSize=8;container=0;" vertex="1" parent="1">
          <mxGeometry x="80" y="538" width="47.5" height="16" as="geometry" />
        </mxCell>
        <mxCell id="MAAAuruS-whw0iSs_L9g-41" value="$$\text{pairs}$$" style="text;html=1;align=right;verticalAlign=middle;whiteSpace=wrap;rounded=0;fontSize=8;container=0;" vertex="1" parent="1">
          <mxGeometry x="97.5" y="558" width="30" height="16" as="geometry" />
        </mxCell>
        <mxCell id="MAAAuruS-whw0iSs_L9g-42" value="" style="shape=curlyBracket;whiteSpace=wrap;html=1;rounded=1;labelPosition=left;verticalLabelPosition=middle;align=right;verticalAlign=middle;fillColor=#ffe6cc;strokeColor=#d79b00;strokeWidth=0.5;" vertex="1" parent="1">
          <mxGeometry x="130" y="510" width="5" height="92" as="geometry" />
        </mxCell>
        <mxCell id="MAAAuruS-whw0iSs_L9g-43" value="" style="shape=cube;whiteSpace=wrap;html=1;boundedLbl=1;backgroundOutline=1;darkOpacity=0.05;darkOpacity2=0.1;size=10;fillColor=#f5f5f5;strokeColor=#666666;fontColor=#333333;sketch=1;curveFitting=1;jiggle=2;strokeWidth=0.5;" vertex="1" parent="1">
          <mxGeometry x="380" y="480" width="186" height="128" as="geometry" />
        </mxCell>
        <mxCell id="MAAAuruS-whw0iSs_L9g-44" value="$$w_1 = func\text{(query, key}_1) $$" style="text;html=1;align=center;verticalAlign=middle;whiteSpace=wrap;rounded=0;fontSize=8;" vertex="1" parent="1">
          <mxGeometry x="400" y="512.5" width="100" height="16" as="geometry" />
        </mxCell>
        <mxCell id="MAAAuruS-whw0iSs_L9g-45" value="1. weight" style="text;html=1;align=left;verticalAlign=middle;whiteSpace=wrap;rounded=0;fontFamily=Comic Sans MS;fontSize=8;" vertex="1" parent="1">
          <mxGeometry x="400" y="497.5" width="60" height="15" as="geometry" />
        </mxCell>
        <mxCell id="MAAAuruS-whw0iSs_L9g-46" value="2. weighted sum of values" style="text;html=1;align=left;verticalAlign=middle;whiteSpace=wrap;rounded=0;fontFamily=Comic Sans MS;fontSize=8;" vertex="1" parent="1">
          <mxGeometry x="400" y="569" width="120" height="15" as="geometry" />
        </mxCell>
        <mxCell id="MAAAuruS-whw0iSs_L9g-48" value="$$w_i = func\text{(query, key}_i) $$" style="text;html=1;align=center;verticalAlign=middle;whiteSpace=wrap;rounded=0;fontSize=8;" vertex="1" parent="1">
          <mxGeometry x="400" y="528.5" width="100" height="16" as="geometry" />
        </mxCell>
        <mxCell id="MAAAuruS-whw0iSs_L9g-49" value="$$w_n = func\text{(query, key}_n) $$" style="text;html=1;align=center;verticalAlign=middle;whiteSpace=wrap;rounded=0;fontSize=8;" vertex="1" parent="1">
          <mxGeometry x="400" y="544.5" width="100" height="16" as="geometry" />
        </mxCell>
        <mxCell id="MAAAuruS-whw0iSs_L9g-51" value="$$\text{output} = w_1\text{value}_1 + \cdots + w_n\text{value}_n $$" style="text;html=1;align=left;verticalAlign=middle;whiteSpace=wrap;rounded=0;fontSize=8;" vertex="1" parent="1">
          <mxGeometry x="400" y="584" width="160" height="16" as="geometry" />
        </mxCell>
        <mxCell id="MAAAuruS-whw0iSs_L9g-53" value="Attention" style="text;html=1;align=center;verticalAlign=middle;whiteSpace=wrap;rounded=0;fontFamily=Comic Sans MS;fontSize=18;" vertex="1" parent="1">
          <mxGeometry x="423" y="448" width="100" height="30" as="geometry" />
        </mxCell>
        <mxCell id="MAAAuruS-whw0iSs_L9g-54" value="$$\boldsymbol{\text{output}}$$" style="text;html=1;align=center;verticalAlign=middle;whiteSpace=wrap;rounded=0;fontSize=8;container=0;" vertex="1" parent="1">
          <mxGeometry x="622.5" y="537.75" width="30" height="16" as="geometry" />
        </mxCell>
        <mxCell id="MAAAuruS-whw0iSs_L9g-55" value="0.3" style="whiteSpace=wrap;html=1;aspect=fixed;strokeWidth=0.5;fillColor=#dae8fc;strokeColor=#6c8ebf;fontSize=8;fontFamily=Comic Sans MS;fontStyle=0;container=0;" vertex="1" parent="1">
          <mxGeometry x="652.5" y="535.75" width="20" height="20" as="geometry" />
        </mxCell>
        <mxCell id="MAAAuruS-whw0iSs_L9g-56" value="0.5" style="whiteSpace=wrap;html=1;aspect=fixed;strokeWidth=0.5;fillColor=#dae8fc;strokeColor=#6c8ebf;fontSize=8;fontFamily=Comic Sans MS;fontStyle=0;align=center;container=0;" vertex="1" parent="1">
          <mxGeometry x="672.5" y="535.75" width="20" height="20" as="geometry" />
        </mxCell>
        <mxCell id="MAAAuruS-whw0iSs_L9g-57" value="0.8" style="whiteSpace=wrap;html=1;aspect=fixed;strokeWidth=0.5;fillColor=#dae8fc;strokeColor=#6c8ebf;fontSize=8;fontFamily=Comic Sans MS;fontStyle=0;container=0;" vertex="1" parent="1">
          <mxGeometry x="692.5" y="535.75" width="20" height="20" as="geometry" />
        </mxCell>
        <mxCell id="MAAAuruS-whw0iSs_L9g-58" value="0.6" style="whiteSpace=wrap;html=1;aspect=fixed;strokeWidth=0.5;fillColor=#dae8fc;strokeColor=#6c8ebf;fontSize=8;fontFamily=Comic Sans MS;fontStyle=0;container=0;" vertex="1" parent="1">
          <mxGeometry x="712.5" y="535.75" width="20" height="20" as="geometry" />
        </mxCell>
        <mxCell id="MAAAuruS-whw0iSs_L9g-60" value="Input" style="text;html=1;align=center;verticalAlign=middle;whiteSpace=wrap;rounded=0;fontFamily=Comic Sans MS;fontSize=12;" vertex="1" parent="1">
          <mxGeometry x="150" y="418" width="100" height="30" as="geometry" />
        </mxCell>
        <mxCell id="MAAAuruS-whw0iSs_L9g-62" value="Output" style="text;html=1;align=center;verticalAlign=middle;whiteSpace=wrap;rounded=0;fontFamily=Comic Sans MS;fontSize=12;" vertex="1" parent="1">
          <mxGeometry x="632.5" y="474.25" width="100" height="30" as="geometry" />
        </mxCell>
        <mxCell id="MAAAuruS-whw0iSs_L9g-63" value="" style="shape=flexArrow;endArrow=classic;html=1;rounded=0;fillColor=#f5f5f5;strokeColor=#666666;sketch=1;curveFitting=1;jiggle=2;strokeWidth=0.5;width=5.714285714285714;endSize=5.380952380952381;endWidth=7.755102040816325;" edge="1" parent="1">
          <mxGeometry width="50" height="50" relative="1" as="geometry">
            <mxPoint x="330" y="545.76" as="sourcePoint" />
            <mxPoint x="370" y="545.76" as="targetPoint" />
          </mxGeometry>
        </mxCell>
        <mxCell id="MAAAuruS-whw0iSs_L9g-64" value="" style="shape=flexArrow;endArrow=classic;html=1;rounded=0;fillColor=#f5f5f5;strokeColor=#666666;sketch=1;curveFitting=1;jiggle=2;strokeWidth=0.5;width=5.714285714285714;endSize=5.380952380952381;endWidth=7.755102040816325;" edge="1" parent="1">
          <mxGeometry width="50" height="50" relative="1" as="geometry">
            <mxPoint x="573" y="546" as="sourcePoint" />
            <mxPoint x="613" y="546" as="targetPoint" />
          </mxGeometry>
        </mxCell>
      </root>
    </mxGraphModel>
  </diagram>
  <diagram id="SApwvYj3qLGl_yOCL_Cj" name="第 2 页">
    <mxGraphModel grid="1" page="1" gridSize="10" guides="1" tooltips="1" connect="1" arrows="1" fold="1" pageScale="1" pageWidth="827" pageHeight="1169" math="1" shadow="0">
      <root>
        <mxCell id="0" />
        <mxCell id="1" parent="0" />
        <mxCell id="b7HftQ90P88GyIj58a9p-1" value="" style="group" vertex="1" connectable="0" parent="1">
          <mxGeometry x="40" y="40" width="140" height="95" as="geometry" />
        </mxCell>
        <mxCell id="b7HftQ90P88GyIj58a9p-2" value="$$x_1$$" style="text;html=1;align=center;verticalAlign=middle;whiteSpace=wrap;rounded=0;fontSize=8;" vertex="1" parent="b7HftQ90P88GyIj58a9p-1">
          <mxGeometry y="15" width="20" height="20" as="geometry" />
        </mxCell>
        <mxCell id="b7HftQ90P88GyIj58a9p-3" value="$$x_2$$" style="text;html=1;align=center;verticalAlign=middle;whiteSpace=wrap;rounded=0;fontSize=8;" vertex="1" parent="b7HftQ90P88GyIj58a9p-1">
          <mxGeometry y="35" width="20" height="20" as="geometry" />
        </mxCell>
        <mxCell id="b7HftQ90P88GyIj58a9p-4" value="$$x_3$$" style="text;html=1;align=center;verticalAlign=middle;whiteSpace=wrap;rounded=0;fontSize=8;" vertex="1" parent="b7HftQ90P88GyIj58a9p-1">
          <mxGeometry y="55" width="20" height="20" as="geometry" />
        </mxCell>
        <mxCell id="b7HftQ90P88GyIj58a9p-5" value="$$x_4$$" style="text;html=1;align=center;verticalAlign=middle;whiteSpace=wrap;rounded=0;fontSize=8;" vertex="1" parent="b7HftQ90P88GyIj58a9p-1">
          <mxGeometry y="75" width="20" height="20" as="geometry" />
        </mxCell>
        <mxCell id="b7HftQ90P88GyIj58a9p-6" value="" style="group" vertex="1" connectable="0" parent="b7HftQ90P88GyIj58a9p-1">
          <mxGeometry x="20" y="15" width="120" height="80" as="geometry" />
        </mxCell>
        <mxCell id="b7HftQ90P88GyIj58a9p-7" value="0.5" style="whiteSpace=wrap;html=1;aspect=fixed;strokeWidth=0.5;fillColor=#f5f5f5;fontColor=#333333;strokeColor=#666666;fontSize=8;fontFamily=Comic Sans MS;fontStyle=0" vertex="1" parent="b7HftQ90P88GyIj58a9p-6">
          <mxGeometry width="20" height="20" as="geometry" />
        </mxCell>
        <mxCell id="b7HftQ90P88GyIj58a9p-8" value="0" style="whiteSpace=wrap;html=1;aspect=fixed;strokeWidth=0.5;fillColor=#f5f5f5;fontColor=#333333;strokeColor=#666666;fontSize=8;fontFamily=Comic Sans MS;fontStyle=0;align=center;" vertex="1" parent="b7HftQ90P88GyIj58a9p-6">
          <mxGeometry x="20" width="20" height="20" as="geometry" />
        </mxCell>
        <mxCell id="b7HftQ90P88GyIj58a9p-9" value="0.2" style="whiteSpace=wrap;html=1;aspect=fixed;strokeWidth=0.5;fillColor=#f5f5f5;fontColor=#333333;strokeColor=#666666;fontSize=8;fontFamily=Comic Sans MS;fontStyle=0" vertex="1" parent="b7HftQ90P88GyIj58a9p-6">
          <mxGeometry x="40" width="20" height="20" as="geometry" />
        </mxCell>
        <mxCell id="b7HftQ90P88GyIj58a9p-10" value="0.1" style="whiteSpace=wrap;html=1;aspect=fixed;strokeWidth=0.5;fillColor=#f5f5f5;fontColor=#333333;strokeColor=#666666;fontSize=8;fontFamily=Comic Sans MS;fontStyle=0" vertex="1" parent="b7HftQ90P88GyIj58a9p-6">
          <mxGeometry x="60" width="20" height="20" as="geometry" />
        </mxCell>
        <mxCell id="b7HftQ90P88GyIj58a9p-11" value="0" style="whiteSpace=wrap;html=1;aspect=fixed;strokeWidth=0.5;fillColor=#f5f5f5;fontColor=#333333;strokeColor=#666666;fontSize=8;fontFamily=Comic Sans MS;fontStyle=0" vertex="1" parent="b7HftQ90P88GyIj58a9p-6">
          <mxGeometry x="80" width="20" height="20" as="geometry" />
        </mxCell>
        <mxCell id="b7HftQ90P88GyIj58a9p-12" value="0.1" style="whiteSpace=wrap;html=1;aspect=fixed;strokeWidth=0.5;fillColor=#f5f5f5;fontColor=#333333;strokeColor=#666666;fontSize=8;fontFamily=Comic Sans MS;fontStyle=0" vertex="1" parent="b7HftQ90P88GyIj58a9p-6">
          <mxGeometry x="100" width="20" height="20" as="geometry" />
        </mxCell>
        <mxCell id="b7HftQ90P88GyIj58a9p-13" value="0.1" style="whiteSpace=wrap;html=1;aspect=fixed;strokeWidth=0.5;fillColor=#f5f5f5;fontColor=#333333;strokeColor=#666666;fontSize=8;fontFamily=Comic Sans MS;fontStyle=0" vertex="1" parent="b7HftQ90P88GyIj58a9p-6">
          <mxGeometry y="20" width="20" height="20" as="geometry" />
        </mxCell>
        <mxCell id="b7HftQ90P88GyIj58a9p-14" value="0.1" style="whiteSpace=wrap;html=1;aspect=fixed;strokeWidth=0.5;fillColor=#f5f5f5;fontColor=#333333;strokeColor=#666666;fontSize=8;fontFamily=Comic Sans MS;fontStyle=0;align=center;" vertex="1" parent="b7HftQ90P88GyIj58a9p-6">
          <mxGeometry x="20" y="20" width="20" height="20" as="geometry" />
        </mxCell>
        <mxCell id="b7HftQ90P88GyIj58a9p-15" value="0.2" style="whiteSpace=wrap;html=1;aspect=fixed;strokeWidth=0.5;fillColor=#f5f5f5;fontColor=#333333;strokeColor=#666666;fontSize=8;fontFamily=Comic Sans MS;fontStyle=0" vertex="1" parent="b7HftQ90P88GyIj58a9p-6">
          <mxGeometry x="40" y="20" width="20" height="20" as="geometry" />
        </mxCell>
        <mxCell id="b7HftQ90P88GyIj58a9p-16" value="0" style="whiteSpace=wrap;html=1;aspect=fixed;strokeWidth=0.5;fillColor=#f5f5f5;fontColor=#333333;strokeColor=#666666;fontSize=8;fontFamily=Comic Sans MS;fontStyle=0" vertex="1" parent="b7HftQ90P88GyIj58a9p-6">
          <mxGeometry x="60" y="20" width="20" height="20" as="geometry" />
        </mxCell>
        <mxCell id="b7HftQ90P88GyIj58a9p-17" value="0.5" style="whiteSpace=wrap;html=1;aspect=fixed;strokeWidth=0.5;fillColor=#f5f5f5;fontColor=#333333;strokeColor=#666666;fontSize=8;fontFamily=Comic Sans MS;fontStyle=0" vertex="1" parent="b7HftQ90P88GyIj58a9p-6">
          <mxGeometry x="80" y="20" width="20" height="20" as="geometry" />
        </mxCell>
        <mxCell id="b7HftQ90P88GyIj58a9p-18" value="0" style="whiteSpace=wrap;html=1;aspect=fixed;strokeWidth=0.5;fillColor=#f5f5f5;fontColor=#333333;strokeColor=#666666;fontSize=8;fontFamily=Comic Sans MS;fontStyle=0" vertex="1" parent="b7HftQ90P88GyIj58a9p-6">
          <mxGeometry x="100" y="20" width="20" height="20" as="geometry" />
        </mxCell>
        <mxCell id="b7HftQ90P88GyIj58a9p-19" value="0.3" style="whiteSpace=wrap;html=1;aspect=fixed;strokeWidth=0.5;fillColor=#f5f5f5;fontColor=#333333;strokeColor=#666666;fontSize=8;fontFamily=Comic Sans MS;fontStyle=0" vertex="1" parent="b7HftQ90P88GyIj58a9p-6">
          <mxGeometry y="40" width="20" height="20" as="geometry" />
        </mxCell>
        <mxCell id="b7HftQ90P88GyIj58a9p-20" value="0" style="whiteSpace=wrap;html=1;aspect=fixed;strokeWidth=0.5;fillColor=#f5f5f5;fontColor=#333333;strokeColor=#666666;fontSize=8;fontFamily=Comic Sans MS;fontStyle=0;align=center;" vertex="1" parent="b7HftQ90P88GyIj58a9p-6">
          <mxGeometry x="20" y="40" width="20" height="20" as="geometry" />
        </mxCell>
        <mxCell id="b7HftQ90P88GyIj58a9p-21" value="0" style="whiteSpace=wrap;html=1;aspect=fixed;strokeWidth=0.5;fillColor=#f5f5f5;fontColor=#333333;strokeColor=#666666;fontSize=8;fontFamily=Comic Sans MS;fontStyle=0" vertex="1" parent="b7HftQ90P88GyIj58a9p-6">
          <mxGeometry x="40" y="40" width="20" height="20" as="geometry" />
        </mxCell>
        <mxCell id="b7HftQ90P88GyIj58a9p-22" value="0.1" style="whiteSpace=wrap;html=1;aspect=fixed;strokeWidth=0.5;fillColor=#f5f5f5;fontColor=#333333;strokeColor=#666666;fontSize=8;fontFamily=Comic Sans MS;fontStyle=0" vertex="1" parent="b7HftQ90P88GyIj58a9p-6">
          <mxGeometry x="60" y="40" width="20" height="20" as="geometry" />
        </mxCell>
        <mxCell id="b7HftQ90P88GyIj58a9p-23" value="0.2" style="whiteSpace=wrap;html=1;aspect=fixed;strokeWidth=0.5;fillColor=#f5f5f5;fontColor=#333333;strokeColor=#666666;fontSize=8;fontFamily=Comic Sans MS;fontStyle=0" vertex="1" parent="b7HftQ90P88GyIj58a9p-6">
          <mxGeometry x="80" y="40" width="20" height="20" as="geometry" />
        </mxCell>
        <mxCell id="b7HftQ90P88GyIj58a9p-24" value="0.1" style="whiteSpace=wrap;html=1;aspect=fixed;strokeWidth=0.5;fillColor=#f5f5f5;fontColor=#333333;strokeColor=#666666;fontSize=8;fontFamily=Comic Sans MS;fontStyle=0" vertex="1" parent="b7HftQ90P88GyIj58a9p-6">
          <mxGeometry x="100" y="40" width="20" height="20" as="geometry" />
        </mxCell>
        <mxCell id="b7HftQ90P88GyIj58a9p-25" value="0.6" style="whiteSpace=wrap;html=1;aspect=fixed;strokeWidth=0.5;fillColor=#f5f5f5;fontColor=#333333;strokeColor=#666666;fontSize=8;fontFamily=Comic Sans MS;fontStyle=0" vertex="1" parent="b7HftQ90P88GyIj58a9p-6">
          <mxGeometry y="60" width="20" height="20" as="geometry" />
        </mxCell>
        <mxCell id="b7HftQ90P88GyIj58a9p-26" value="0.5" style="whiteSpace=wrap;html=1;aspect=fixed;strokeWidth=0.5;fillColor=#f5f5f5;fontColor=#333333;strokeColor=#666666;fontSize=8;fontFamily=Comic Sans MS;fontStyle=0;align=center;" vertex="1" parent="b7HftQ90P88GyIj58a9p-6">
          <mxGeometry x="20" y="60" width="20" height="20" as="geometry" />
        </mxCell>
        <mxCell id="b7HftQ90P88GyIj58a9p-27" value="0" style="whiteSpace=wrap;html=1;aspect=fixed;strokeWidth=0.5;fillColor=#f5f5f5;fontColor=#333333;strokeColor=#666666;fontSize=8;fontFamily=Comic Sans MS;fontStyle=0" vertex="1" parent="b7HftQ90P88GyIj58a9p-6">
          <mxGeometry x="40" y="60" width="20" height="20" as="geometry" />
        </mxCell>
        <mxCell id="b7HftQ90P88GyIj58a9p-28" value="0.3" style="whiteSpace=wrap;html=1;aspect=fixed;strokeWidth=0.5;fillColor=#f5f5f5;fontColor=#333333;strokeColor=#666666;fontSize=8;fontFamily=Comic Sans MS;fontStyle=0" vertex="1" parent="b7HftQ90P88GyIj58a9p-6">
          <mxGeometry x="60" y="60" width="20" height="20" as="geometry" />
        </mxCell>
        <mxCell id="b7HftQ90P88GyIj58a9p-29" value="0.2" style="whiteSpace=wrap;html=1;aspect=fixed;strokeWidth=0.5;fillColor=#f5f5f5;fontColor=#333333;strokeColor=#666666;fontSize=8;fontFamily=Comic Sans MS;fontStyle=0" vertex="1" parent="b7HftQ90P88GyIj58a9p-6">
          <mxGeometry x="80" y="60" width="20" height="20" as="geometry" />
        </mxCell>
        <mxCell id="b7HftQ90P88GyIj58a9p-30" value="0.5" style="whiteSpace=wrap;html=1;aspect=fixed;strokeWidth=0.5;fillColor=#f5f5f5;fontColor=#333333;strokeColor=#666666;fontSize=8;fontFamily=Comic Sans MS;fontStyle=0" vertex="1" parent="b7HftQ90P88GyIj58a9p-6">
          <mxGeometry x="100" y="60" width="20" height="20" as="geometry" />
        </mxCell>
        <mxCell id="b7HftQ90P88GyIj58a9p-31" value="$$\boldsymbol{X}$$" style="text;html=1;align=center;verticalAlign=middle;whiteSpace=wrap;rounded=0;fontSize=10;" vertex="1" parent="b7HftQ90P88GyIj58a9p-1">
          <mxGeometry x="20" width="30" height="15" as="geometry" />
        </mxCell>
        <mxCell id="-ovoyg5qxa4uDfsNIAW7-21" value="" style="group" vertex="1" connectable="0" parent="1">
          <mxGeometry x="220" y="40" width="60" height="135" as="geometry" />
        </mxCell>
        <mxCell id="-ovoyg5qxa4uDfsNIAW7-1" value="$$\boldsymbol{W}_Q$$" style="text;html=1;align=center;verticalAlign=middle;whiteSpace=wrap;rounded=0;fontSize=10;" vertex="1" parent="-ovoyg5qxa4uDfsNIAW7-21">
          <mxGeometry width="30" height="15" as="geometry" />
        </mxCell>
        <mxCell id="-ovoyg5qxa4uDfsNIAW7-2" value="" style="group" vertex="1" connectable="0" parent="-ovoyg5qxa4uDfsNIAW7-21">
          <mxGeometry y="15" width="60" height="120" as="geometry" />
        </mxCell>
        <mxCell id="-ovoyg5qxa4uDfsNIAW7-3" value="1" style="whiteSpace=wrap;html=1;aspect=fixed;strokeWidth=0.5;fillColor=#f5f5f5;fontColor=#333333;strokeColor=#666666;fontSize=8;fontFamily=Comic Sans MS;fontStyle=0" vertex="1" parent="-ovoyg5qxa4uDfsNIAW7-2">
          <mxGeometry width="20" height="20" as="geometry" />
        </mxCell>
        <mxCell id="-ovoyg5qxa4uDfsNIAW7-4" value="0" style="whiteSpace=wrap;html=1;aspect=fixed;strokeWidth=0.5;fillColor=#f5f5f5;fontColor=#333333;strokeColor=#666666;fontSize=8;fontFamily=Comic Sans MS;fontStyle=0;align=center;" vertex="1" parent="-ovoyg5qxa4uDfsNIAW7-2">
          <mxGeometry x="20" width="20" height="20" as="geometry" />
        </mxCell>
        <mxCell id="-ovoyg5qxa4uDfsNIAW7-5" value="0" style="whiteSpace=wrap;html=1;aspect=fixed;strokeWidth=0.5;fillColor=#f5f5f5;fontColor=#333333;strokeColor=#666666;fontSize=8;fontFamily=Comic Sans MS;fontStyle=0" vertex="1" parent="-ovoyg5qxa4uDfsNIAW7-2">
          <mxGeometry x="40" width="20" height="20" as="geometry" />
        </mxCell>
        <mxCell id="-ovoyg5qxa4uDfsNIAW7-6" value="0" style="whiteSpace=wrap;html=1;aspect=fixed;strokeWidth=0.5;fillColor=#f5f5f5;fontColor=#333333;strokeColor=#666666;fontSize=8;fontFamily=Comic Sans MS;fontStyle=0" vertex="1" parent="-ovoyg5qxa4uDfsNIAW7-2">
          <mxGeometry y="20" width="20" height="20" as="geometry" />
        </mxCell>
        <mxCell id="-ovoyg5qxa4uDfsNIAW7-7" value="1" style="whiteSpace=wrap;html=1;aspect=fixed;strokeWidth=0.5;fillColor=#f5f5f5;fontColor=#333333;strokeColor=#666666;fontSize=8;fontFamily=Comic Sans MS;fontStyle=0;align=center;" vertex="1" parent="-ovoyg5qxa4uDfsNIAW7-2">
          <mxGeometry x="20" y="20" width="20" height="20" as="geometry" />
        </mxCell>
        <mxCell id="-ovoyg5qxa4uDfsNIAW7-8" value="1" style="whiteSpace=wrap;html=1;aspect=fixed;strokeWidth=0.5;fillColor=#f5f5f5;fontColor=#333333;strokeColor=#666666;fontSize=8;fontFamily=Comic Sans MS;fontStyle=0" vertex="1" parent="-ovoyg5qxa4uDfsNIAW7-2">
          <mxGeometry x="40" y="20" width="20" height="20" as="geometry" />
        </mxCell>
        <mxCell id="-ovoyg5qxa4uDfsNIAW7-9" value="1" style="whiteSpace=wrap;html=1;aspect=fixed;strokeWidth=0.5;fillColor=#f5f5f5;fontColor=#333333;strokeColor=#666666;fontSize=8;fontFamily=Comic Sans MS;fontStyle=0" vertex="1" parent="-ovoyg5qxa4uDfsNIAW7-2">
          <mxGeometry y="40" width="20" height="20" as="geometry" />
        </mxCell>
        <mxCell id="-ovoyg5qxa4uDfsNIAW7-10" value="0" style="whiteSpace=wrap;html=1;aspect=fixed;strokeWidth=0.5;fillColor=#f5f5f5;fontColor=#333333;strokeColor=#666666;fontSize=8;fontFamily=Comic Sans MS;fontStyle=0;align=center;" vertex="1" parent="-ovoyg5qxa4uDfsNIAW7-2">
          <mxGeometry x="20" y="40" width="20" height="20" as="geometry" />
        </mxCell>
        <mxCell id="-ovoyg5qxa4uDfsNIAW7-11" value="0" style="whiteSpace=wrap;html=1;aspect=fixed;strokeWidth=0.5;fillColor=#f5f5f5;fontColor=#333333;strokeColor=#666666;fontSize=8;fontFamily=Comic Sans MS;fontStyle=0" vertex="1" parent="-ovoyg5qxa4uDfsNIAW7-2">
          <mxGeometry x="40" y="40" width="20" height="20" as="geometry" />
        </mxCell>
        <mxCell id="-ovoyg5qxa4uDfsNIAW7-12" value="0" style="whiteSpace=wrap;html=1;aspect=fixed;strokeWidth=0.5;fillColor=#f5f5f5;fontColor=#333333;strokeColor=#666666;fontSize=8;fontFamily=Comic Sans MS;fontStyle=0" vertex="1" parent="-ovoyg5qxa4uDfsNIAW7-2">
          <mxGeometry y="80" width="20" height="20" as="geometry" />
        </mxCell>
        <mxCell id="-ovoyg5qxa4uDfsNIAW7-13" value="0" style="whiteSpace=wrap;html=1;aspect=fixed;strokeWidth=0.5;fillColor=#f5f5f5;fontColor=#333333;strokeColor=#666666;fontSize=8;fontFamily=Comic Sans MS;fontStyle=0" vertex="1" parent="-ovoyg5qxa4uDfsNIAW7-2">
          <mxGeometry x="20" y="80" width="20" height="20" as="geometry" />
        </mxCell>
        <mxCell id="-ovoyg5qxa4uDfsNIAW7-14" value="1" style="whiteSpace=wrap;html=1;aspect=fixed;strokeWidth=0.5;fillColor=#f5f5f5;fontColor=#333333;strokeColor=#666666;fontSize=8;fontFamily=Comic Sans MS;fontStyle=0" vertex="1" parent="-ovoyg5qxa4uDfsNIAW7-2">
          <mxGeometry x="40" y="80" width="20" height="20" as="geometry" />
        </mxCell>
        <mxCell id="-ovoyg5qxa4uDfsNIAW7-15" value="1" style="whiteSpace=wrap;html=1;aspect=fixed;strokeWidth=0.5;fillColor=#f5f5f5;fontColor=#333333;strokeColor=#666666;fontSize=8;fontFamily=Comic Sans MS;fontStyle=0" vertex="1" parent="-ovoyg5qxa4uDfsNIAW7-2">
          <mxGeometry y="60" width="20" height="20" as="geometry" />
        </mxCell>
        <mxCell id="-ovoyg5qxa4uDfsNIAW7-16" value="0" style="whiteSpace=wrap;html=1;aspect=fixed;strokeWidth=0.5;fillColor=#f5f5f5;fontColor=#333333;strokeColor=#666666;fontSize=8;fontFamily=Comic Sans MS;fontStyle=0;align=center;" vertex="1" parent="-ovoyg5qxa4uDfsNIAW7-2">
          <mxGeometry x="20" y="60" width="20" height="20" as="geometry" />
        </mxCell>
        <mxCell id="-ovoyg5qxa4uDfsNIAW7-17" value="1" style="whiteSpace=wrap;html=1;aspect=fixed;strokeWidth=0.5;fillColor=#f5f5f5;fontColor=#333333;strokeColor=#666666;fontSize=8;fontFamily=Comic Sans MS;fontStyle=0" vertex="1" parent="-ovoyg5qxa4uDfsNIAW7-2">
          <mxGeometry x="40" y="60" width="20" height="20" as="geometry" />
        </mxCell>
        <mxCell id="-ovoyg5qxa4uDfsNIAW7-18" value="0" style="whiteSpace=wrap;html=1;aspect=fixed;strokeWidth=0.5;fillColor=#f5f5f5;fontColor=#333333;strokeColor=#666666;fontSize=8;fontFamily=Comic Sans MS;fontStyle=0" vertex="1" parent="-ovoyg5qxa4uDfsNIAW7-2">
          <mxGeometry y="100" width="20" height="20" as="geometry" />
        </mxCell>
        <mxCell id="-ovoyg5qxa4uDfsNIAW7-19" value="1" style="whiteSpace=wrap;html=1;aspect=fixed;strokeWidth=0.5;fillColor=#f5f5f5;fontColor=#333333;strokeColor=#666666;fontSize=8;fontFamily=Comic Sans MS;fontStyle=0" vertex="1" parent="-ovoyg5qxa4uDfsNIAW7-2">
          <mxGeometry x="20" y="100" width="20" height="20" as="geometry" />
        </mxCell>
        <mxCell id="-ovoyg5qxa4uDfsNIAW7-20" value="0" style="whiteSpace=wrap;html=1;aspect=fixed;strokeWidth=0.5;fillColor=#f5f5f5;fontColor=#333333;strokeColor=#666666;fontSize=8;fontFamily=Comic Sans MS;fontStyle=0" vertex="1" parent="-ovoyg5qxa4uDfsNIAW7-2">
          <mxGeometry x="40" y="100" width="20" height="20" as="geometry" />
        </mxCell>
        <mxCell id="KxWO_ogJUBVKRCKu3Fl--19" value="" style="group" vertex="1" connectable="0" parent="1">
          <mxGeometry x="320" y="40" width="80" height="96" as="geometry" />
        </mxCell>
        <mxCell id="KxWO_ogJUBVKRCKu3Fl--18" value="$$\boldsymbol{Q}$$" style="text;html=1;align=center;verticalAlign=middle;whiteSpace=wrap;rounded=0;fontSize=10;container=0;" vertex="1" parent="KxWO_ogJUBVKRCKu3Fl--19">
          <mxGeometry x="20" width="30" height="15" as="geometry" />
        </mxCell>
        <mxCell id="KxWO_ogJUBVKRCKu3Fl--1" value="0.8" style="whiteSpace=wrap;html=1;aspect=fixed;strokeWidth=0.5;fillColor=#f5f5f5;fontColor=#333333;strokeColor=#666666;fontSize=8;fontFamily=Comic Sans MS;fontStyle=0;container=0;" vertex="1" parent="KxWO_ogJUBVKRCKu3Fl--19">
          <mxGeometry x="20" y="16" width="20" height="20" as="geometry" />
        </mxCell>
        <mxCell id="KxWO_ogJUBVKRCKu3Fl--2" value="0.1" style="whiteSpace=wrap;html=1;aspect=fixed;strokeWidth=0.5;fillColor=#f5f5f5;fontColor=#333333;strokeColor=#666666;fontSize=8;fontFamily=Comic Sans MS;fontStyle=0;align=center;container=0;" vertex="1" parent="KxWO_ogJUBVKRCKu3Fl--19">
          <mxGeometry x="40" y="16" width="20" height="20" as="geometry" />
        </mxCell>
        <mxCell id="KxWO_ogJUBVKRCKu3Fl--3" value="0.1" style="whiteSpace=wrap;html=1;aspect=fixed;strokeWidth=0.5;fillColor=#f5f5f5;fontColor=#333333;strokeColor=#666666;fontSize=8;fontFamily=Comic Sans MS;fontStyle=0;container=0;" vertex="1" parent="KxWO_ogJUBVKRCKu3Fl--19">
          <mxGeometry x="60" y="16" width="20" height="20" as="geometry" />
        </mxCell>
        <mxCell id="KxWO_ogJUBVKRCKu3Fl--4" value="0.3" style="whiteSpace=wrap;html=1;aspect=fixed;strokeWidth=0.5;fillColor=#f5f5f5;fontColor=#333333;strokeColor=#666666;fontSize=8;fontFamily=Comic Sans MS;fontStyle=0;container=0;" vertex="1" parent="KxWO_ogJUBVKRCKu3Fl--19">
          <mxGeometry x="20" y="36" width="20" height="20" as="geometry" />
        </mxCell>
        <mxCell id="KxWO_ogJUBVKRCKu3Fl--5" value="0.1" style="whiteSpace=wrap;html=1;aspect=fixed;strokeWidth=0.5;fillColor=#f5f5f5;fontColor=#333333;strokeColor=#666666;fontSize=8;fontFamily=Comic Sans MS;fontStyle=0;align=center;container=0;" vertex="1" parent="KxWO_ogJUBVKRCKu3Fl--19">
          <mxGeometry x="40" y="36" width="20" height="20" as="geometry" />
        </mxCell>
        <mxCell id="KxWO_ogJUBVKRCKu3Fl--6" value="0.6" style="whiteSpace=wrap;html=1;aspect=fixed;strokeWidth=0.5;fillColor=#f5f5f5;fontColor=#333333;strokeColor=#666666;fontSize=8;fontFamily=Comic Sans MS;fontStyle=0;container=0;" vertex="1" parent="KxWO_ogJUBVKRCKu3Fl--19">
          <mxGeometry x="60" y="36" width="20" height="20" as="geometry" />
        </mxCell>
        <mxCell id="KxWO_ogJUBVKRCKu3Fl--7" value="0.4" style="whiteSpace=wrap;html=1;aspect=fixed;strokeWidth=0.5;fillColor=#f5f5f5;fontColor=#333333;strokeColor=#666666;fontSize=8;fontFamily=Comic Sans MS;fontStyle=0;container=0;" vertex="1" parent="KxWO_ogJUBVKRCKu3Fl--19">
          <mxGeometry x="20" y="56" width="20" height="20" as="geometry" />
        </mxCell>
        <mxCell id="KxWO_ogJUBVKRCKu3Fl--8" value="0.1" style="whiteSpace=wrap;html=1;aspect=fixed;strokeWidth=0.5;fillColor=#f5f5f5;fontColor=#333333;strokeColor=#666666;fontSize=8;fontFamily=Comic Sans MS;fontStyle=0;align=center;container=0;" vertex="1" parent="KxWO_ogJUBVKRCKu3Fl--19">
          <mxGeometry x="40" y="56" width="20" height="20" as="geometry" />
        </mxCell>
        <mxCell id="KxWO_ogJUBVKRCKu3Fl--9" value="0.3" style="whiteSpace=wrap;html=1;aspect=fixed;strokeWidth=0.5;fillColor=#f5f5f5;fontColor=#333333;strokeColor=#666666;fontSize=8;fontFamily=Comic Sans MS;fontStyle=0;container=0;" vertex="1" parent="KxWO_ogJUBVKRCKu3Fl--19">
          <mxGeometry x="60" y="56" width="20" height="20" as="geometry" />
        </mxCell>
        <mxCell id="KxWO_ogJUBVKRCKu3Fl--10" value="0.9" style="whiteSpace=wrap;html=1;aspect=fixed;strokeWidth=0.5;fillColor=#f5f5f5;fontColor=#333333;strokeColor=#666666;fontSize=8;fontFamily=Comic Sans MS;fontStyle=0;container=0;" vertex="1" parent="KxWO_ogJUBVKRCKu3Fl--19">
          <mxGeometry x="20" y="76" width="20" height="20" as="geometry" />
        </mxCell>
        <mxCell id="KxWO_ogJUBVKRCKu3Fl--11" value="1.0" style="whiteSpace=wrap;html=1;aspect=fixed;strokeWidth=0.5;fillColor=#f5f5f5;fontColor=#333333;strokeColor=#666666;fontSize=8;fontFamily=Comic Sans MS;fontStyle=0;align=center;container=0;" vertex="1" parent="KxWO_ogJUBVKRCKu3Fl--19">
          <mxGeometry x="40" y="76" width="20" height="20" as="geometry" />
        </mxCell>
        <mxCell id="KxWO_ogJUBVKRCKu3Fl--12" value="1.0" style="whiteSpace=wrap;html=1;aspect=fixed;strokeWidth=0.5;fillColor=#f5f5f5;fontColor=#333333;strokeColor=#666666;fontSize=8;fontFamily=Comic Sans MS;fontStyle=0;container=0;" vertex="1" parent="KxWO_ogJUBVKRCKu3Fl--19">
          <mxGeometry x="60" y="76" width="20" height="20" as="geometry" />
        </mxCell>
        <mxCell id="KxWO_ogJUBVKRCKu3Fl--13" value="$$q_1$$" style="text;html=1;align=center;verticalAlign=middle;whiteSpace=wrap;rounded=0;fontSize=8;container=0;" vertex="1" parent="KxWO_ogJUBVKRCKu3Fl--19">
          <mxGeometry y="16" width="20" height="20" as="geometry" />
        </mxCell>
        <mxCell id="KxWO_ogJUBVKRCKu3Fl--14" value="$$q_2$$" style="text;html=1;align=center;verticalAlign=middle;whiteSpace=wrap;rounded=0;fontSize=8;container=0;" vertex="1" parent="KxWO_ogJUBVKRCKu3Fl--19">
          <mxGeometry y="36" width="20" height="20" as="geometry" />
        </mxCell>
        <mxCell id="KxWO_ogJUBVKRCKu3Fl--15" value="$$q_3$$" style="text;html=1;align=center;verticalAlign=middle;whiteSpace=wrap;rounded=0;fontSize=8;container=0;" vertex="1" parent="KxWO_ogJUBVKRCKu3Fl--19">
          <mxGeometry y="56" width="20" height="20" as="geometry" />
        </mxCell>
        <mxCell id="KxWO_ogJUBVKRCKu3Fl--16" value="$$q_4$$" style="text;html=1;align=center;verticalAlign=middle;whiteSpace=wrap;rounded=0;fontSize=8;container=0;" vertex="1" parent="KxWO_ogJUBVKRCKu3Fl--19">
          <mxGeometry y="76" width="20" height="20" as="geometry" />
        </mxCell>
        <mxCell id="KxWO_ogJUBVKRCKu3Fl--20" value="@" style="text;html=1;align=center;verticalAlign=middle;whiteSpace=wrap;rounded=0;" vertex="1" parent="1">
          <mxGeometry x="190" y="80" width="20" height="30" as="geometry" />
        </mxCell>
        <mxCell id="KxWO_ogJUBVKRCKu3Fl--21" value="$$\Longrightarrow$$" style="text;html=1;align=center;verticalAlign=middle;whiteSpace=wrap;rounded=0;" vertex="1" parent="1">
          <mxGeometry x="280" y="80" width="40" height="30" as="geometry" />
        </mxCell>
        <mxCell id="KxWO_ogJUBVKRCKu3Fl--22" value="" style="group" vertex="1" connectable="0" parent="1">
          <mxGeometry x="40" y="200" width="140" height="95" as="geometry" />
        </mxCell>
        <mxCell id="KxWO_ogJUBVKRCKu3Fl--23" value="$$x_1$$" style="text;html=1;align=center;verticalAlign=middle;whiteSpace=wrap;rounded=0;fontSize=8;" vertex="1" parent="KxWO_ogJUBVKRCKu3Fl--22">
          <mxGeometry y="15" width="20" height="20" as="geometry" />
        </mxCell>
        <mxCell id="KxWO_ogJUBVKRCKu3Fl--24" value="$$x_2$$" style="text;html=1;align=center;verticalAlign=middle;whiteSpace=wrap;rounded=0;fontSize=8;" vertex="1" parent="KxWO_ogJUBVKRCKu3Fl--22">
          <mxGeometry y="35" width="20" height="20" as="geometry" />
        </mxCell>
        <mxCell id="KxWO_ogJUBVKRCKu3Fl--25" value="$$x_3$$" style="text;html=1;align=center;verticalAlign=middle;whiteSpace=wrap;rounded=0;fontSize=8;" vertex="1" parent="KxWO_ogJUBVKRCKu3Fl--22">
          <mxGeometry y="55" width="20" height="20" as="geometry" />
        </mxCell>
        <mxCell id="KxWO_ogJUBVKRCKu3Fl--26" value="$$x_4$$" style="text;html=1;align=center;verticalAlign=middle;whiteSpace=wrap;rounded=0;fontSize=8;" vertex="1" parent="KxWO_ogJUBVKRCKu3Fl--22">
          <mxGeometry y="75" width="20" height="20" as="geometry" />
        </mxCell>
        <mxCell id="KxWO_ogJUBVKRCKu3Fl--27" value="" style="group" vertex="1" connectable="0" parent="KxWO_ogJUBVKRCKu3Fl--22">
          <mxGeometry x="20" y="15" width="120" height="80" as="geometry" />
        </mxCell>
        <mxCell id="KxWO_ogJUBVKRCKu3Fl--28" value="0.5" style="whiteSpace=wrap;html=1;aspect=fixed;strokeWidth=0.5;fillColor=#f5f5f5;fontColor=#333333;strokeColor=#666666;fontSize=8;fontFamily=Comic Sans MS;fontStyle=0" vertex="1" parent="KxWO_ogJUBVKRCKu3Fl--27">
          <mxGeometry width="20" height="20" as="geometry" />
        </mxCell>
        <mxCell id="KxWO_ogJUBVKRCKu3Fl--29" value="0" style="whiteSpace=wrap;html=1;aspect=fixed;strokeWidth=0.5;fillColor=#f5f5f5;fontColor=#333333;strokeColor=#666666;fontSize=8;fontFamily=Comic Sans MS;fontStyle=0;align=center;" vertex="1" parent="KxWO_ogJUBVKRCKu3Fl--27">
          <mxGeometry x="20" width="20" height="20" as="geometry" />
        </mxCell>
        <mxCell id="KxWO_ogJUBVKRCKu3Fl--30" value="0.2" style="whiteSpace=wrap;html=1;aspect=fixed;strokeWidth=0.5;fillColor=#f5f5f5;fontColor=#333333;strokeColor=#666666;fontSize=8;fontFamily=Comic Sans MS;fontStyle=0" vertex="1" parent="KxWO_ogJUBVKRCKu3Fl--27">
          <mxGeometry x="40" width="20" height="20" as="geometry" />
        </mxCell>
        <mxCell id="KxWO_ogJUBVKRCKu3Fl--31" value="0.1" style="whiteSpace=wrap;html=1;aspect=fixed;strokeWidth=0.5;fillColor=#f5f5f5;fontColor=#333333;strokeColor=#666666;fontSize=8;fontFamily=Comic Sans MS;fontStyle=0" vertex="1" parent="KxWO_ogJUBVKRCKu3Fl--27">
          <mxGeometry x="60" width="20" height="20" as="geometry" />
        </mxCell>
        <mxCell id="KxWO_ogJUBVKRCKu3Fl--32" value="0" style="whiteSpace=wrap;html=1;aspect=fixed;strokeWidth=0.5;fillColor=#f5f5f5;fontColor=#333333;strokeColor=#666666;fontSize=8;fontFamily=Comic Sans MS;fontStyle=0" vertex="1" parent="KxWO_ogJUBVKRCKu3Fl--27">
          <mxGeometry x="80" width="20" height="20" as="geometry" />
        </mxCell>
        <mxCell id="KxWO_ogJUBVKRCKu3Fl--33" value="0.1" style="whiteSpace=wrap;html=1;aspect=fixed;strokeWidth=0.5;fillColor=#f5f5f5;fontColor=#333333;strokeColor=#666666;fontSize=8;fontFamily=Comic Sans MS;fontStyle=0" vertex="1" parent="KxWO_ogJUBVKRCKu3Fl--27">
          <mxGeometry x="100" width="20" height="20" as="geometry" />
        </mxCell>
        <mxCell id="KxWO_ogJUBVKRCKu3Fl--34" value="0.1" style="whiteSpace=wrap;html=1;aspect=fixed;strokeWidth=0.5;fillColor=#f5f5f5;fontColor=#333333;strokeColor=#666666;fontSize=8;fontFamily=Comic Sans MS;fontStyle=0" vertex="1" parent="KxWO_ogJUBVKRCKu3Fl--27">
          <mxGeometry y="20" width="20" height="20" as="geometry" />
        </mxCell>
        <mxCell id="KxWO_ogJUBVKRCKu3Fl--35" value="0.1" style="whiteSpace=wrap;html=1;aspect=fixed;strokeWidth=0.5;fillColor=#f5f5f5;fontColor=#333333;strokeColor=#666666;fontSize=8;fontFamily=Comic Sans MS;fontStyle=0;align=center;" vertex="1" parent="KxWO_ogJUBVKRCKu3Fl--27">
          <mxGeometry x="20" y="20" width="20" height="20" as="geometry" />
        </mxCell>
        <mxCell id="KxWO_ogJUBVKRCKu3Fl--36" value="0.2" style="whiteSpace=wrap;html=1;aspect=fixed;strokeWidth=0.5;fillColor=#f5f5f5;fontColor=#333333;strokeColor=#666666;fontSize=8;fontFamily=Comic Sans MS;fontStyle=0" vertex="1" parent="KxWO_ogJUBVKRCKu3Fl--27">
          <mxGeometry x="40" y="20" width="20" height="20" as="geometry" />
        </mxCell>
        <mxCell id="KxWO_ogJUBVKRCKu3Fl--37" value="0" style="whiteSpace=wrap;html=1;aspect=fixed;strokeWidth=0.5;fillColor=#f5f5f5;fontColor=#333333;strokeColor=#666666;fontSize=8;fontFamily=Comic Sans MS;fontStyle=0" vertex="1" parent="KxWO_ogJUBVKRCKu3Fl--27">
          <mxGeometry x="60" y="20" width="20" height="20" as="geometry" />
        </mxCell>
        <mxCell id="KxWO_ogJUBVKRCKu3Fl--38" value="0.5" style="whiteSpace=wrap;html=1;aspect=fixed;strokeWidth=0.5;fillColor=#f5f5f5;fontColor=#333333;strokeColor=#666666;fontSize=8;fontFamily=Comic Sans MS;fontStyle=0" vertex="1" parent="KxWO_ogJUBVKRCKu3Fl--27">
          <mxGeometry x="80" y="20" width="20" height="20" as="geometry" />
        </mxCell>
        <mxCell id="KxWO_ogJUBVKRCKu3Fl--39" value="0" style="whiteSpace=wrap;html=1;aspect=fixed;strokeWidth=0.5;fillColor=#f5f5f5;fontColor=#333333;strokeColor=#666666;fontSize=8;fontFamily=Comic Sans MS;fontStyle=0" vertex="1" parent="KxWO_ogJUBVKRCKu3Fl--27">
          <mxGeometry x="100" y="20" width="20" height="20" as="geometry" />
        </mxCell>
        <mxCell id="KxWO_ogJUBVKRCKu3Fl--40" value="0.3" style="whiteSpace=wrap;html=1;aspect=fixed;strokeWidth=0.5;fillColor=#f5f5f5;fontColor=#333333;strokeColor=#666666;fontSize=8;fontFamily=Comic Sans MS;fontStyle=0" vertex="1" parent="KxWO_ogJUBVKRCKu3Fl--27">
          <mxGeometry y="40" width="20" height="20" as="geometry" />
        </mxCell>
        <mxCell id="KxWO_ogJUBVKRCKu3Fl--41" value="0" style="whiteSpace=wrap;html=1;aspect=fixed;strokeWidth=0.5;fillColor=#f5f5f5;fontColor=#333333;strokeColor=#666666;fontSize=8;fontFamily=Comic Sans MS;fontStyle=0;align=center;" vertex="1" parent="KxWO_ogJUBVKRCKu3Fl--27">
          <mxGeometry x="20" y="40" width="20" height="20" as="geometry" />
        </mxCell>
        <mxCell id="KxWO_ogJUBVKRCKu3Fl--42" value="0" style="whiteSpace=wrap;html=1;aspect=fixed;strokeWidth=0.5;fillColor=#f5f5f5;fontColor=#333333;strokeColor=#666666;fontSize=8;fontFamily=Comic Sans MS;fontStyle=0" vertex="1" parent="KxWO_ogJUBVKRCKu3Fl--27">
          <mxGeometry x="40" y="40" width="20" height="20" as="geometry" />
        </mxCell>
        <mxCell id="KxWO_ogJUBVKRCKu3Fl--43" value="0.1" style="whiteSpace=wrap;html=1;aspect=fixed;strokeWidth=0.5;fillColor=#f5f5f5;fontColor=#333333;strokeColor=#666666;fontSize=8;fontFamily=Comic Sans MS;fontStyle=0" vertex="1" parent="KxWO_ogJUBVKRCKu3Fl--27">
          <mxGeometry x="60" y="40" width="20" height="20" as="geometry" />
        </mxCell>
        <mxCell id="KxWO_ogJUBVKRCKu3Fl--44" value="0.2" style="whiteSpace=wrap;html=1;aspect=fixed;strokeWidth=0.5;fillColor=#f5f5f5;fontColor=#333333;strokeColor=#666666;fontSize=8;fontFamily=Comic Sans MS;fontStyle=0" vertex="1" parent="KxWO_ogJUBVKRCKu3Fl--27">
          <mxGeometry x="80" y="40" width="20" height="20" as="geometry" />
        </mxCell>
        <mxCell id="KxWO_ogJUBVKRCKu3Fl--45" value="0.1" style="whiteSpace=wrap;html=1;aspect=fixed;strokeWidth=0.5;fillColor=#f5f5f5;fontColor=#333333;strokeColor=#666666;fontSize=8;fontFamily=Comic Sans MS;fontStyle=0" vertex="1" parent="KxWO_ogJUBVKRCKu3Fl--27">
          <mxGeometry x="100" y="40" width="20" height="20" as="geometry" />
        </mxCell>
        <mxCell id="KxWO_ogJUBVKRCKu3Fl--46" value="0.6" style="whiteSpace=wrap;html=1;aspect=fixed;strokeWidth=0.5;fillColor=#f5f5f5;fontColor=#333333;strokeColor=#666666;fontSize=8;fontFamily=Comic Sans MS;fontStyle=0" vertex="1" parent="KxWO_ogJUBVKRCKu3Fl--27">
          <mxGeometry y="60" width="20" height="20" as="geometry" />
        </mxCell>
        <mxCell id="KxWO_ogJUBVKRCKu3Fl--47" value="0.5" style="whiteSpace=wrap;html=1;aspect=fixed;strokeWidth=0.5;fillColor=#f5f5f5;fontColor=#333333;strokeColor=#666666;fontSize=8;fontFamily=Comic Sans MS;fontStyle=0;align=center;" vertex="1" parent="KxWO_ogJUBVKRCKu3Fl--27">
          <mxGeometry x="20" y="60" width="20" height="20" as="geometry" />
        </mxCell>
        <mxCell id="KxWO_ogJUBVKRCKu3Fl--48" value="0" style="whiteSpace=wrap;html=1;aspect=fixed;strokeWidth=0.5;fillColor=#f5f5f5;fontColor=#333333;strokeColor=#666666;fontSize=8;fontFamily=Comic Sans MS;fontStyle=0" vertex="1" parent="KxWO_ogJUBVKRCKu3Fl--27">
          <mxGeometry x="40" y="60" width="20" height="20" as="geometry" />
        </mxCell>
        <mxCell id="KxWO_ogJUBVKRCKu3Fl--49" value="0.3" style="whiteSpace=wrap;html=1;aspect=fixed;strokeWidth=0.5;fillColor=#f5f5f5;fontColor=#333333;strokeColor=#666666;fontSize=8;fontFamily=Comic Sans MS;fontStyle=0" vertex="1" parent="KxWO_ogJUBVKRCKu3Fl--27">
          <mxGeometry x="60" y="60" width="20" height="20" as="geometry" />
        </mxCell>
        <mxCell id="KxWO_ogJUBVKRCKu3Fl--50" value="0.2" style="whiteSpace=wrap;html=1;aspect=fixed;strokeWidth=0.5;fillColor=#f5f5f5;fontColor=#333333;strokeColor=#666666;fontSize=8;fontFamily=Comic Sans MS;fontStyle=0" vertex="1" parent="KxWO_ogJUBVKRCKu3Fl--27">
          <mxGeometry x="80" y="60" width="20" height="20" as="geometry" />
        </mxCell>
        <mxCell id="KxWO_ogJUBVKRCKu3Fl--51" value="0.5" style="whiteSpace=wrap;html=1;aspect=fixed;strokeWidth=0.5;fillColor=#f5f5f5;fontColor=#333333;strokeColor=#666666;fontSize=8;fontFamily=Comic Sans MS;fontStyle=0" vertex="1" parent="KxWO_ogJUBVKRCKu3Fl--27">
          <mxGeometry x="100" y="60" width="20" height="20" as="geometry" />
        </mxCell>
        <mxCell id="KxWO_ogJUBVKRCKu3Fl--52" value="$$\boldsymbol{X}$$" style="text;html=1;align=center;verticalAlign=middle;whiteSpace=wrap;rounded=0;fontSize=10;" vertex="1" parent="KxWO_ogJUBVKRCKu3Fl--22">
          <mxGeometry x="20" width="30" height="15" as="geometry" />
        </mxCell>
        <mxCell id="KxWO_ogJUBVKRCKu3Fl--92" value="@" style="text;html=1;align=center;verticalAlign=middle;whiteSpace=wrap;rounded=0;" vertex="1" parent="1">
          <mxGeometry x="190" y="240" width="20" height="30" as="geometry" />
        </mxCell>
        <mxCell id="KxWO_ogJUBVKRCKu3Fl--93" value="$$\Longrightarrow$$" style="text;html=1;align=center;verticalAlign=middle;whiteSpace=wrap;rounded=0;" vertex="1" parent="1">
          <mxGeometry x="280" y="240" width="40" height="30" as="geometry" />
        </mxCell>
        <mxCell id="NRImYtoVnaOrvR0FkBSm-37" value="" style="group" vertex="1" connectable="0" parent="1">
          <mxGeometry x="220" y="200" width="60" height="135" as="geometry" />
        </mxCell>
        <mxCell id="NRImYtoVnaOrvR0FkBSm-1" value="$$\boldsymbol{W}_K$$" style="text;html=1;align=center;verticalAlign=middle;whiteSpace=wrap;rounded=0;fontSize=10;" vertex="1" parent="NRImYtoVnaOrvR0FkBSm-37">
          <mxGeometry width="30" height="15" as="geometry" />
        </mxCell>
        <mxCell id="NRImYtoVnaOrvR0FkBSm-2" value="" style="group" vertex="1" connectable="0" parent="NRImYtoVnaOrvR0FkBSm-37">
          <mxGeometry y="15" width="60" height="120" as="geometry" />
        </mxCell>
        <mxCell id="NRImYtoVnaOrvR0FkBSm-3" value="0" style="whiteSpace=wrap;html=1;aspect=fixed;strokeWidth=0.5;fillColor=#f5f5f5;fontColor=#333333;strokeColor=#666666;fontSize=8;fontFamily=Comic Sans MS;fontStyle=0" vertex="1" parent="NRImYtoVnaOrvR0FkBSm-2">
          <mxGeometry width="20" height="20" as="geometry" />
        </mxCell>
        <mxCell id="NRImYtoVnaOrvR0FkBSm-4" value="1" style="whiteSpace=wrap;html=1;aspect=fixed;strokeWidth=0.5;fillColor=#f5f5f5;fontColor=#333333;strokeColor=#666666;fontSize=8;fontFamily=Comic Sans MS;fontStyle=0;align=center;" vertex="1" parent="NRImYtoVnaOrvR0FkBSm-2">
          <mxGeometry x="20" width="20" height="20" as="geometry" />
        </mxCell>
        <mxCell id="NRImYtoVnaOrvR0FkBSm-5" value="1" style="whiteSpace=wrap;html=1;aspect=fixed;strokeWidth=0.5;fillColor=#f5f5f5;fontColor=#333333;strokeColor=#666666;fontSize=8;fontFamily=Comic Sans MS;fontStyle=0" vertex="1" parent="NRImYtoVnaOrvR0FkBSm-2">
          <mxGeometry x="40" width="20" height="20" as="geometry" />
        </mxCell>
        <mxCell id="NRImYtoVnaOrvR0FkBSm-6" value="1" style="whiteSpace=wrap;html=1;aspect=fixed;strokeWidth=0.5;fillColor=#f5f5f5;fontColor=#333333;strokeColor=#666666;fontSize=8;fontFamily=Comic Sans MS;fontStyle=0" vertex="1" parent="NRImYtoVnaOrvR0FkBSm-2">
          <mxGeometry y="20" width="20" height="20" as="geometry" />
        </mxCell>
        <mxCell id="NRImYtoVnaOrvR0FkBSm-7" value="1" style="whiteSpace=wrap;html=1;aspect=fixed;strokeWidth=0.5;fillColor=#f5f5f5;fontColor=#333333;strokeColor=#666666;fontSize=8;fontFamily=Comic Sans MS;fontStyle=0;align=center;" vertex="1" parent="NRImYtoVnaOrvR0FkBSm-2">
          <mxGeometry x="20" y="20" width="20" height="20" as="geometry" />
        </mxCell>
        <mxCell id="NRImYtoVnaOrvR0FkBSm-8" value="0" style="whiteSpace=wrap;html=1;aspect=fixed;strokeWidth=0.5;fillColor=#f5f5f5;fontColor=#333333;strokeColor=#666666;fontSize=8;fontFamily=Comic Sans MS;fontStyle=0" vertex="1" parent="NRImYtoVnaOrvR0FkBSm-2">
          <mxGeometry x="40" y="20" width="20" height="20" as="geometry" />
        </mxCell>
        <mxCell id="NRImYtoVnaOrvR0FkBSm-9" value="1" style="whiteSpace=wrap;html=1;aspect=fixed;strokeWidth=0.5;fillColor=#f5f5f5;fontColor=#333333;strokeColor=#666666;fontSize=8;fontFamily=Comic Sans MS;fontStyle=0" vertex="1" parent="NRImYtoVnaOrvR0FkBSm-2">
          <mxGeometry y="40" width="20" height="20" as="geometry" />
        </mxCell>
        <mxCell id="NRImYtoVnaOrvR0FkBSm-10" value="0" style="whiteSpace=wrap;html=1;aspect=fixed;strokeWidth=0.5;fillColor=#f5f5f5;fontColor=#333333;strokeColor=#666666;fontSize=8;fontFamily=Comic Sans MS;fontStyle=0;align=center;" vertex="1" parent="NRImYtoVnaOrvR0FkBSm-2">
          <mxGeometry x="20" y="40" width="20" height="20" as="geometry" />
        </mxCell>
        <mxCell id="NRImYtoVnaOrvR0FkBSm-11" value="0" style="whiteSpace=wrap;html=1;aspect=fixed;strokeWidth=0.5;fillColor=#f5f5f5;fontColor=#333333;strokeColor=#666666;fontSize=8;fontFamily=Comic Sans MS;fontStyle=0" vertex="1" parent="NRImYtoVnaOrvR0FkBSm-2">
          <mxGeometry x="40" y="40" width="20" height="20" as="geometry" />
        </mxCell>
        <mxCell id="NRImYtoVnaOrvR0FkBSm-12" value="0" style="whiteSpace=wrap;html=1;aspect=fixed;strokeWidth=0.5;fillColor=#f5f5f5;fontColor=#333333;strokeColor=#666666;fontSize=8;fontFamily=Comic Sans MS;fontStyle=0" vertex="1" parent="NRImYtoVnaOrvR0FkBSm-2">
          <mxGeometry y="80" width="20" height="20" as="geometry" />
        </mxCell>
        <mxCell id="NRImYtoVnaOrvR0FkBSm-13" value="0" style="whiteSpace=wrap;html=1;aspect=fixed;strokeWidth=0.5;fillColor=#f5f5f5;fontColor=#333333;strokeColor=#666666;fontSize=8;fontFamily=Comic Sans MS;fontStyle=0" vertex="1" parent="NRImYtoVnaOrvR0FkBSm-2">
          <mxGeometry x="20" y="80" width="20" height="20" as="geometry" />
        </mxCell>
        <mxCell id="NRImYtoVnaOrvR0FkBSm-14" value="0" style="whiteSpace=wrap;html=1;aspect=fixed;strokeWidth=0.5;fillColor=#f5f5f5;fontColor=#333333;strokeColor=#666666;fontSize=8;fontFamily=Comic Sans MS;fontStyle=0" vertex="1" parent="NRImYtoVnaOrvR0FkBSm-2">
          <mxGeometry x="40" y="80" width="20" height="20" as="geometry" />
        </mxCell>
        <mxCell id="NRImYtoVnaOrvR0FkBSm-15" value="1" style="whiteSpace=wrap;html=1;aspect=fixed;strokeWidth=0.5;fillColor=#f5f5f5;fontColor=#333333;strokeColor=#666666;fontSize=8;fontFamily=Comic Sans MS;fontStyle=0" vertex="1" parent="NRImYtoVnaOrvR0FkBSm-2">
          <mxGeometry y="60" width="20" height="20" as="geometry" />
        </mxCell>
        <mxCell id="NRImYtoVnaOrvR0FkBSm-16" value="1" style="whiteSpace=wrap;html=1;aspect=fixed;strokeWidth=0.5;fillColor=#f5f5f5;fontColor=#333333;strokeColor=#666666;fontSize=8;fontFamily=Comic Sans MS;fontStyle=0;align=center;" vertex="1" parent="NRImYtoVnaOrvR0FkBSm-2">
          <mxGeometry x="20" y="60" width="20" height="20" as="geometry" />
        </mxCell>
        <mxCell id="NRImYtoVnaOrvR0FkBSm-17" value="1" style="whiteSpace=wrap;html=1;aspect=fixed;strokeWidth=0.5;fillColor=#f5f5f5;fontColor=#333333;strokeColor=#666666;fontSize=8;fontFamily=Comic Sans MS;fontStyle=0" vertex="1" parent="NRImYtoVnaOrvR0FkBSm-2">
          <mxGeometry x="40" y="60" width="20" height="20" as="geometry" />
        </mxCell>
        <mxCell id="NRImYtoVnaOrvR0FkBSm-18" value="1" style="whiteSpace=wrap;html=1;aspect=fixed;strokeWidth=0.5;fillColor=#f5f5f5;fontColor=#333333;strokeColor=#666666;fontSize=8;fontFamily=Comic Sans MS;fontStyle=0" vertex="1" parent="NRImYtoVnaOrvR0FkBSm-2">
          <mxGeometry y="100" width="20" height="20" as="geometry" />
        </mxCell>
        <mxCell id="NRImYtoVnaOrvR0FkBSm-19" value="0" style="whiteSpace=wrap;html=1;aspect=fixed;strokeWidth=0.5;fillColor=#f5f5f5;fontColor=#333333;strokeColor=#666666;fontSize=8;fontFamily=Comic Sans MS;fontStyle=0" vertex="1" parent="NRImYtoVnaOrvR0FkBSm-2">
          <mxGeometry x="20" y="100" width="20" height="20" as="geometry" />
        </mxCell>
        <mxCell id="NRImYtoVnaOrvR0FkBSm-20" value="1" style="whiteSpace=wrap;html=1;aspect=fixed;strokeWidth=0.5;fillColor=#f5f5f5;fontColor=#333333;strokeColor=#666666;fontSize=8;fontFamily=Comic Sans MS;fontStyle=0" vertex="1" parent="NRImYtoVnaOrvR0FkBSm-2">
          <mxGeometry x="40" y="100" width="20" height="20" as="geometry" />
        </mxCell>
        <mxCell id="NRImYtoVnaOrvR0FkBSm-38" value="" style="group" vertex="1" connectable="0" parent="1">
          <mxGeometry x="320" y="215" width="80" height="80" as="geometry" />
        </mxCell>
        <mxCell id="NRImYtoVnaOrvR0FkBSm-21" value="0.4" style="whiteSpace=wrap;html=1;aspect=fixed;strokeWidth=0.5;fillColor=#f5f5f5;fontColor=#333333;strokeColor=#666666;fontSize=8;fontFamily=Comic Sans MS;fontStyle=0" vertex="1" parent="NRImYtoVnaOrvR0FkBSm-38">
          <mxGeometry x="20" width="20" height="20" as="geometry" />
        </mxCell>
        <mxCell id="NRImYtoVnaOrvR0FkBSm-22" value="0.6" style="whiteSpace=wrap;html=1;aspect=fixed;strokeWidth=0.5;fillColor=#f5f5f5;fontColor=#333333;strokeColor=#666666;fontSize=8;fontFamily=Comic Sans MS;fontStyle=0;align=center;" vertex="1" parent="NRImYtoVnaOrvR0FkBSm-38">
          <mxGeometry x="40" width="20" height="20" as="geometry" />
        </mxCell>
        <mxCell id="NRImYtoVnaOrvR0FkBSm-23" value="0.7" style="whiteSpace=wrap;html=1;aspect=fixed;strokeWidth=0.5;fillColor=#f5f5f5;fontColor=#333333;strokeColor=#666666;fontSize=8;fontFamily=Comic Sans MS;fontStyle=0" vertex="1" parent="NRImYtoVnaOrvR0FkBSm-38">
          <mxGeometry x="60" width="20" height="20" as="geometry" />
        </mxCell>
        <mxCell id="NRImYtoVnaOrvR0FkBSm-24" value="0.3" style="whiteSpace=wrap;html=1;aspect=fixed;strokeWidth=0.5;fillColor=#f5f5f5;fontColor=#333333;strokeColor=#666666;fontSize=8;fontFamily=Comic Sans MS;fontStyle=0" vertex="1" parent="NRImYtoVnaOrvR0FkBSm-38">
          <mxGeometry x="20" y="20" width="20" height="20" as="geometry" />
        </mxCell>
        <mxCell id="NRImYtoVnaOrvR0FkBSm-25" value="0.2" style="whiteSpace=wrap;html=1;aspect=fixed;strokeWidth=0.5;fillColor=#f5f5f5;fontColor=#333333;strokeColor=#666666;fontSize=8;fontFamily=Comic Sans MS;fontStyle=0;align=center;" vertex="1" parent="NRImYtoVnaOrvR0FkBSm-38">
          <mxGeometry x="40" y="20" width="20" height="20" as="geometry" />
        </mxCell>
        <mxCell id="NRImYtoVnaOrvR0FkBSm-26" value="0.1" style="whiteSpace=wrap;html=1;aspect=fixed;strokeWidth=0.5;fillColor=#f5f5f5;fontColor=#333333;strokeColor=#666666;fontSize=8;fontFamily=Comic Sans MS;fontStyle=0" vertex="1" parent="NRImYtoVnaOrvR0FkBSm-38">
          <mxGeometry x="60" y="20" width="20" height="20" as="geometry" />
        </mxCell>
        <mxCell id="NRImYtoVnaOrvR0FkBSm-27" value="0.2" style="whiteSpace=wrap;html=1;aspect=fixed;strokeWidth=0.5;fillColor=#f5f5f5;fontColor=#333333;strokeColor=#666666;fontSize=8;fontFamily=Comic Sans MS;fontStyle=0" vertex="1" parent="NRImYtoVnaOrvR0FkBSm-38">
          <mxGeometry x="20" y="40" width="20" height="20" as="geometry" />
        </mxCell>
        <mxCell id="NRImYtoVnaOrvR0FkBSm-28" value="0.4" style="whiteSpace=wrap;html=1;aspect=fixed;strokeWidth=0.5;fillColor=#f5f5f5;fontColor=#333333;strokeColor=#666666;fontSize=8;fontFamily=Comic Sans MS;fontStyle=0;align=center;" vertex="1" parent="NRImYtoVnaOrvR0FkBSm-38">
          <mxGeometry x="40" y="40" width="20" height="20" as="geometry" />
        </mxCell>
        <mxCell id="NRImYtoVnaOrvR0FkBSm-29" value="0.5" style="whiteSpace=wrap;html=1;aspect=fixed;strokeWidth=0.5;fillColor=#f5f5f5;fontColor=#333333;strokeColor=#666666;fontSize=8;fontFamily=Comic Sans MS;fontStyle=0" vertex="1" parent="NRImYtoVnaOrvR0FkBSm-38">
          <mxGeometry x="60" y="40" width="20" height="20" as="geometry" />
        </mxCell>
        <mxCell id="NRImYtoVnaOrvR0FkBSm-30" value="1.3" style="whiteSpace=wrap;html=1;aspect=fixed;strokeWidth=0.5;fillColor=#f5f5f5;fontColor=#333333;strokeColor=#666666;fontSize=8;fontFamily=Comic Sans MS;fontStyle=0" vertex="1" parent="NRImYtoVnaOrvR0FkBSm-38">
          <mxGeometry x="20" y="60" width="20" height="20" as="geometry" />
        </mxCell>
        <mxCell id="NRImYtoVnaOrvR0FkBSm-31" value="1.4" style="whiteSpace=wrap;html=1;aspect=fixed;strokeWidth=0.5;fillColor=#f5f5f5;fontColor=#333333;strokeColor=#666666;fontSize=8;fontFamily=Comic Sans MS;fontStyle=0;align=center;" vertex="1" parent="NRImYtoVnaOrvR0FkBSm-38">
          <mxGeometry x="40" y="60" width="20" height="20" as="geometry" />
        </mxCell>
        <mxCell id="NRImYtoVnaOrvR0FkBSm-32" value="1.4" style="whiteSpace=wrap;html=1;aspect=fixed;strokeWidth=0.5;fillColor=#f5f5f5;fontColor=#333333;strokeColor=#666666;fontSize=8;fontFamily=Comic Sans MS;fontStyle=0" vertex="1" parent="NRImYtoVnaOrvR0FkBSm-38">
          <mxGeometry x="60" y="60" width="20" height="20" as="geometry" />
        </mxCell>
        <mxCell id="NRImYtoVnaOrvR0FkBSm-33" value="$$k_1$$" style="text;html=1;align=center;verticalAlign=middle;whiteSpace=wrap;rounded=0;fontSize=8;" vertex="1" parent="NRImYtoVnaOrvR0FkBSm-38">
          <mxGeometry width="20" height="20" as="geometry" />
        </mxCell>
        <mxCell id="NRImYtoVnaOrvR0FkBSm-34" value="$$k_2$$" style="text;html=1;align=center;verticalAlign=middle;whiteSpace=wrap;rounded=0;fontSize=8;" vertex="1" parent="NRImYtoVnaOrvR0FkBSm-38">
          <mxGeometry y="20" width="20" height="20" as="geometry" />
        </mxCell>
        <mxCell id="NRImYtoVnaOrvR0FkBSm-35" value="$$k_3$$" style="text;html=1;align=center;verticalAlign=middle;whiteSpace=wrap;rounded=0;fontSize=8;" vertex="1" parent="NRImYtoVnaOrvR0FkBSm-38">
          <mxGeometry y="40" width="20" height="20" as="geometry" />
        </mxCell>
        <mxCell id="NRImYtoVnaOrvR0FkBSm-36" value="$$k_4$$" style="text;html=1;align=center;verticalAlign=middle;whiteSpace=wrap;rounded=0;fontSize=8;" vertex="1" parent="NRImYtoVnaOrvR0FkBSm-38">
          <mxGeometry y="60" width="20" height="20" as="geometry" />
        </mxCell>
        <mxCell id="KxWO_ogJUBVKRCKu3Fl--75" value="$$\boldsymbol{K}$$" style="text;html=1;align=center;verticalAlign=middle;whiteSpace=wrap;rounded=0;fontSize=10;container=0;" vertex="1" parent="1">
          <mxGeometry x="340" y="200" width="30" height="15" as="geometry" />
        </mxCell>
      </root>
    </mxGraphModel>
  </diagram>
</mxfile>
